<?xml version="1.0" encoding="iso-8859-1"?>
<!-- Generator: Adobe Illustrator 15.1.0, SVG Export Plug-In . SVG Version: 6.00 Build 0)  -->
<!DOCTYPE svg PUBLIC "-//W3C//DTD SVG 1.1//EN" "http://www.w3.org/Graphics/SVG/1.1/DTD/svg11.dtd">
<svg version="1.1" id="&#x30EC;&#x30A4;&#x30E4;&#x30FC;_1"
	 xmlns="http://www.w3.org/2000/svg" xmlns:xlink="http://www.w3.org/1999/xlink" x="0px" y="0px" width="426.68px"
	 height="30.586px" viewBox="0 0 426.68 30.586" style="enable-background:new 0 0 426.68 30.586;" xml:space="preserve">
<g>
	<g>
		<g>
			<polygon style="fill:#666666;" points="67.834,14.831 68.111,15.48 68.39,14.831 77.334,1.031 85.062,1.031 71.34,19.976 
				71.34,29.653 64.884,29.653 64.884,19.976 51.161,1.031 58.888,1.031 			"/>
		</g>
		<g>
			<path style="fill:#666666;" d="M17.521,30.513c11.187,0,17.521-7.184,17.521-15.254S28.708,0.002,17.521,0.002S0,7.188,0,15.259
				S6.334,30.513,17.521,30.513z M6.826,15.258c0-5.063,3.2-10.746,10.658-10.746c7.356,0,10.658,5.552,10.658,10.746
				c0,5.139-3.178,10.74-10.658,10.74C10.226,25.998,6.826,20.646,6.826,15.258z"/>
		</g>
		<g>
			<polygon style="fill:#666666;" points="44.488,24.752 44.488,1.028 38.113,1.028 38.113,29.653 61.624,29.653 61.624,24.752 			
				"/>
		</g>
		<g>
			<polygon style="fill:#666666;" points="103.065,22.997 112.618,1.033 120.445,1.033 120.445,29.65 114.724,29.65 114.724,8.959 
				114.818,7.765 114.426,8.931 105.607,29.65 103.065,29.65 100.523,29.65 91.705,8.931 91.311,7.765 91.406,8.959 91.406,29.65 
				85.686,29.65 85.686,1.033 93.511,1.033 			"/>
		</g>
		<g>
			<path style="fill:#666666;" d="M140.759,1.033h-16.314V29.65h6.302V19.052h10.012c4.31,0,12.747-0.076,12.747-9.009
				C153.506,1.095,145.082,1.033,140.759,1.033z M140.759,14.615h-10.012V5.47h10.012c1.39,0,6.254-0.168,6.254,4.573
				C147.013,14.785,142.149,14.615,140.759,14.615z"/>
		</g>
		<g>
			<path style="fill:#666666;" d="M186.583,20.622h7.005c0.23,3.477,2.458,5.316,8.812,5.316c7.032,0,8.063-2.748,8.063-4.311
				c0-1.873-1.411-3.063-6.284-3.745c-3.341-0.469-7.646-1.266-10.527-2.072c-1.139-0.318-5.93-1.366-6.018-6.827
				c0-5.105,4.917-8.953,14.07-8.953c9.122,0,13.544,3.713,14.425,8.093h-7.365c-0.476-3.405-6.427-3.614-7.06-3.614
				c-2.958,0-7.425,0.727-7.425,3.753c0,1.734,1.333,2.393,2.575,2.819c1.089,0.373,9.319,1.751,10.652,2.009
				c2.79,0.539,9.57,1.856,9.57,8.009c0,6.83-6.15,9.487-14.619,9.487C194.142,30.586,187.22,28.716,186.583,20.622z"/>
		</g>
		<g>
			<path style="fill:#666666;" d="M170.273,30.263c14.711,0,14.45-8.402,14.45-14.101V1.031h-6.372v15.131
				c0,5.4-0.686,9.75-8.078,9.75c-7.394,0-8.08-4.35-8.08-9.75V1.031h-6.372v15.131C155.821,21.86,155.559,30.263,170.273,30.263z"
				/>
		</g>
	</g>
	<g>
		<g>
			<polygon style="fill:#666666;" points="389.441,1.032 383.244,1.036 383.244,21.415 383.316,22.216 382.889,21.527 
				367.426,1.032 360.717,1.036 360.713,29.65 366.92,29.65 366.92,9.246 366.846,8.481 367.275,9.176 382.725,29.655 
				389.441,29.65 			"/>
		</g>
		<g>
			<path style="fill:#666666;" d="M306.267,29.653h7.009L301.05,0.957h-7.722l-12.225,28.696h7.009l1.857-5.007h14.44
				L306.267,29.653z M291.686,20.017l5.503-14.837l5.503,14.837H291.686z"/>
		</g>
		<g>
			<rect x="350.156" y="1.038" style="fill:#666666;" width="6.559" height="28.617"/>
		</g>
		<g>
			<rect x="234.154" y="1.031" style="fill:#666666;" width="6.557" height="28.618"/>
		</g>
		<g>
			<polygon style="fill:#666666;" points="262.095,22.997 271.648,1.036 279.475,1.036 279.475,29.653 273.754,29.653 
				273.754,8.959 273.848,7.767 273.456,8.931 264.637,29.653 262.095,29.653 259.551,29.653 250.734,8.931 250.34,7.767 
				250.436,8.959 250.436,29.653 244.715,29.653 244.715,1.036 252.54,1.036 			"/>
		</g>
		<g>
			<g>
				<path style="fill:#666666;" d="M329.702,25.884c-7.26,0-10.847-5.09-10.847-10.629c0-4.987,3.165-10.744,10.847-10.744
					c4.506,0,8.16,2.434,9.289,4.801l7.404-1.115C343.775,4.479,339.564,0,329.738,0c-11.337,0-17.521,7.11-17.521,15.258
					c0,8.962,6.78,15.254,16.628,15.254c4.561,0,9.105-1.819,11.079-4.145l0.636-0.78l-0.05,0.975v3.092h5.769V13.42h-14.726v4.511
					h8.52C339.125,24.358,332.24,25.884,329.702,25.884z"/>
			</g>
		</g>
		<g>
			<g>
				<path style="fill:#666666;" d="M409.988,25.884c-7.262,0-10.848-5.09-10.848-10.629c0-4.987,3.164-10.744,10.848-10.744
					c4.504,0,8.156,2.434,9.287,4.801l7.404-1.115C424.061,4.479,419.85,0,410.023,0c-11.338,0-17.521,7.11-17.521,15.258
					c0,8.962,6.779,15.254,16.629,15.254c4.561,0,9.104-1.819,11.08-4.145l0.633-0.78l-0.049,0.975v3.092h5.77V13.42h-14.727v4.511
					h8.52C419.41,24.358,412.523,25.884,409.988,25.884z"/>
			</g>
		</g>
	</g>
</g>
</svg>
