<?xml version="1.0" encoding="utf-8"?>
<!-- Generator: Adobe Illustrator 16.0.0, SVG Export Plug-In . SVG Version: 6.00 Build 0)  -->
<!DOCTYPE svg PUBLIC "-//W3C//DTD SVG 1.1//EN" "http://www.w3.org/Graphics/SVG/1.1/DTD/svg11.dtd">
<svg version="1.1" id="レイヤー_1" xmlns="http://www.w3.org/2000/svg" xmlns:xlink="http://www.w3.org/1999/xlink" x="0px"
	 y="0px" width="70.749px" height="13.417px" viewBox="0 0 70.749 13.417" enable-background="new 0 0 70.749 13.417"
	 xml:space="preserve">
<g>
	<polygon fill="#08107B" points="12.291,0.312 15.681,0.312 15.681,6.615 19.944,6.615 19.944,8.449 12.291,8.449 	"/>
	<path fill="#08107B" d="M55.258,8.774c-2.644,0-4.864-0.786-4.864-2.952v-5.51h3.28v5.259c0,1.018,0.754,1.483,1.584,1.483
		c0.831,0,1.583-0.465,1.583-1.483V0.312h3.281v5.511C60.122,7.988,57.899,8.774,55.258,8.774z"/>
	<path fill="#08107B" d="M66.996,2.475h3.468c-0.183-1.868-2.813-2.426-4.85-2.426c-2.039,0-4.691,0.667-4.691,2.705
		c0,1.49,1.455,1.966,2.479,2.173c0.727,0.146,1.935,0.352,2.541,0.485c0.841,0.184,1.273,0.355,1.273,0.851
		c0,0.531-0.487,0.802-1.492,0.802c-0.952,0-1.521-0.295-1.679-0.967h-3.532c0.207,2.215,3.045,2.7,5.285,2.7
		c2.258,0,4.951-0.536,4.951-2.733c0-1.192-0.769-1.986-2.659-2.365c-0.989-0.198-2.361-0.455-2.888-0.546
		c-0.7-0.122-0.949-0.374-0.949-0.717c0-0.354,0.341-0.726,1.319-0.726C66.4,1.711,66.849,1.953,66.996,2.475z"/>
	<path fill="#08107B" d="M46.712,5.452c2.442,0,3.063-1.552,3.063-2.544c0-0.913-0.524-2.596-3.059-2.596h-6.563v8.137h3.223V5.452
		H46.712z M43.372,3.675V2.089h2.152c0.535,0,0.994,0.25,0.994,0.767c0,0.456-0.265,0.819-0.998,0.819H43.372z"/>
	<path fill="#08107B" d="M24.022,0.509l0.092-0.198h3.4l-3.539,5.396v2.74h-3.219v-2.74L17.23,0.312h3.39l0.095,0.198l1.534,2.694
		c0.103,0.173,0.132,0.173,0.244,0L24.022,0.509z"/>
	<path fill="#08107B" d="M34.309,8.449l0.06-0.162l1.73-4.021c0.043-0.105,0.146-0.077,0.148,0.016v4.167h2.775V0.312h-3.354
		l-0.062,0.175L33.54,5.154c-0.076,0.177-0.146,0.176-0.224,0L31.25,0.487l-0.062-0.175h-3.354v8.137h2.775V4.281
		c0.001-0.093,0.104-0.121,0.15-0.016l1.728,4.02l0.061,0.162h1.762V8.449z"/>
	<path fill="#08107B" d="M11.524,4.38c0,2.732-2.371,4.379-5.677,4.379c-3.308,0-5.679-1.646-5.679-4.379
		C0.17,1.645,2.541,0,5.848,0C9.153,0,11.524,1.645,11.524,4.38z M8.111,4.38c0-1.647-0.853-2.662-2.263-2.662
		c-1.413,0-2.265,1.015-2.265,2.662c0,1.645,0.852,2.66,2.265,2.66C7.259,7.041,8.111,6.025,8.111,4.38z"/>
</g>
<g>
	<polygon fill="#E9B226" points="0,12.503 35.507,13.417 71.016,12.503 71.016,12.083 35.507,11.169 0,12.083 	"/>
</g>
</svg>
