<?xml version="1.0" encoding="utf-8"?>
<!-- Generator: Adobe Illustrator 18.1.1, SVG Export Plug-In . SVG Version: 6.00 Build 0)  -->
<svg version="1.1" xmlns="http://www.w3.org/2000/svg" xmlns:xlink="http://www.w3.org/1999/xlink" x="0px" y="0px"
	 viewBox="0 0 100 100" enable-background="new 0 0 100 100" xml:space="preserve">
<g id="gear">
</g>
<g id="info">
</g>
<g id="fan">
</g>
<g id="mail-close1">
</g>
<g id="mail-close2">
</g>
<g id="mail-open">
</g>
<g id="campaign">
</g>
<g id="page">
</g>
<g id="preview">
</g>
<g id="conversion">
</g>
<g id="home">
</g>
<g id="instantwin">
</g>
<g id="button">
</g>
<g id="image">
</g>
<g id="text">
</g>
<g id="enquete">
</g>
<g id="write">
</g>
<g id="design">
</g>
<g id="branch-parallel">
</g>
<g id="branch-serial">
</g>
<g id="favo">
</g>
<g id="youtube">
</g>
<g id="coupon">
</g>
<g id="radio">
</g>
<g id="logout">
</g>
<g id="check1">
</g>
<g id="check2">
</g>
<g id="download">
</g>
<g id="plus">
</g>
<g id="add">
</g>
<g id="attract">
</g>
<g id="communication">
</g>
<g id="share">
</g>
<g id="arrow-right">
</g>
<g id="arrow-left-single">
</g>
<g id="arrow-bottom">
</g>
<g id="arrow-top">
</g>
<g id="follow-twitter">
</g>
<g id="hashtag">
</g>
<g id="dashboard">
</g>
<g id="_x5F_staer">
</g>
<g id="retweet">
</g>
<g id="reply">
</g>
<g id="レイヤー_84">
</g>
<g id="arrow-follow">
</g>
<g id="caution">
</g>
<g id="question">
</g>
<g id="minus">
</g>
<g id="delete">
</g>
<g id="edit">
</g>
<g id="fixed">
</g>
<g id="arrow-right-double">
</g>
<g id="arrow-left-double">
</g>
<g id="sort">
</g>
<g id="newwindow">
</g>
<g id="resize">
</g>
<g id="follow-facebook">
</g>
<g id="mail-option">
</g>
<g id="clock">
</g>
<g id="redirect">
</g>
<g id="deadline">
</g>
<g id="gift">
</g>
<g id="open">
</g>
<g id="key">
</g>
<g id="archive-in">
</g>
<g id="archive-out">
</g>
<g id="attention_1_">
</g>
<g id="menu">
</g>
<g id="copy">
</g>
<g id="code">
</g>
<g id="images">
</g>
<g id="retweet_1_">
</g>
<g id="tweet">
</g>
<g id="follow-youtube">
</g>
<g id="re-enquete">
</g>
<g id="title">
</g>
<g id="photo">
</g>
<g id="ranking">
</g>
<g id="login">
</g>
<g id="contact">
</g>
<g id="win">
</g>
<g id="shipping">
</g>
<g id="trashbox">
</g>
<g id="present">
</g>
<g id="segment_1_">
</g>
<g id="up">
</g>
<g id="dwon">
</g>
<g id="all">
</g>
<g id="tag">
	<g id="レイヤー_96">
	</g>
</g>
<g id="flag">
</g>
<g id="rss">
</g>
<g id="comment">
</g>
<g id="cart">
</g>
<g id="contents">
</g>
<g id="ad">
	<g>
		<polygon fill="#040000" points="26.784,54.395 36.001,54.395 31.455,40.234 		"/>
		<path fill="#040000" d="M69.342,38.257h-6.945v23.486h6.945c3.554,0,6.031-1.749,7.433-5.249c0.766-1.92,1.149-4.207,1.149-6.86
			c0-3.662-0.575-6.474-1.724-8.436C75.052,39.237,72.766,38.257,69.342,38.257z"/>
		<path fill="#040000" d="M0,25v50h100V25H0z M40.366,67.993l-2.375-7.397H24.739l-2.439,7.397h-7.866L27.28,32.007h8.508
			L48.52,67.993H40.366z M82.683,61.279c-2.606,4.477-6.629,6.714-12.07,6.714H55.098V32.007h15.516
			c2.231,0.033,4.088,0.293,5.57,0.781c2.525,0.83,4.569,2.353,6.133,4.565c1.254,1.791,2.109,3.728,2.565,5.811
			c0.457,2.084,0.685,4.069,0.685,5.957C85.566,53.906,84.605,57.959,82.683,61.279z"/>
	</g>
</g>
</svg>
