<?xml version="1.0" encoding="utf-8"?>
<!-- Generator: Adobe Illustrator 18.1.1, SVG Export Plug-In . SVG Version: 6.00 Build 0)  -->
<svg version="1.1" id="レイヤー_1" xmlns="http://www.w3.org/2000/svg" xmlns:xlink="http://www.w3.org/1999/xlink" x="0px"
	 y="0px" viewBox="0 0 100 100" enable-background="new 0 0 100 100" xml:space="preserve">
<g id="all">
	<path d="M53.314,59.203c-1.883,1.239-4.963,1.239-6.846,0l-40.705-26.8c-1.883-1.239-1.883-3.268,0-4.507l40.705-26.8
		c1.883-1.239,4.963-1.239,6.846,0l40.705,26.8c1.883,1.239,1.883,3.268,0,4.507L53.314,59.203z M94.248,50.929
		c1.684-1.109,2.151-3.372,1.042-5.055c-1.111-1.685-3.374-2.149-5.055-1.042L49.89,71.394L9.548,44.832
		c-1.682-1.111-3.948-0.643-5.055,1.042c-1.109,1.684-0.642,3.947,1.042,5.055L49.89,80.133L94.248,50.929z M94.248,70.795
		c1.684-1.109,2.151-3.372,1.042-5.055c-1.111-1.685-3.374-2.149-5.055-1.042L49.89,91.26L9.548,64.697
		c-1.682-1.107-3.947-0.643-5.055,1.042c-1.109,1.684-0.642,3.947,1.042,5.055L49.89,100L94.248,70.795z"/>
</g>
</svg>
