<?xml version="1.0" encoding="utf-8"?>
<!-- Generator: Adobe Illustrator 19.1.0, SVG Export Plug-In . SVG Version: 6.00 Build 0)  -->
<svg version="1.1" xmlns="http://www.w3.org/2000/svg" xmlns:xlink="http://www.w3.org/1999/xlink" x="0px" y="0px"
	 viewBox="0 0 100 100" enable-background="new 0 0 100 100" xml:space="preserve">
<g id="gear">
</g>
<g id="info">
</g>
<g id="fan">
</g>
<g id="mail-close1">
</g>
<g id="mail-close2">
</g>
<g id="mail-open">
</g>
<g id="campaign">
</g>
<g id="page">
</g>
<g id="preview">
</g>
<g id="conversion">
</g>
<g id="home">
</g>
<g id="instantwin">
</g>
<g id="button">
</g>
<g id="image">
</g>
<g id="text">
</g>
<g id="enquete">
</g>
<g id="write">
</g>
<g id="design">
</g>
<g id="branch-parallel">
</g>
<g id="branch-serial">
</g>
<g id="fangate">
</g>
<g id="youtube">
</g>
<g id="coupon">
</g>
<g id="radio">
</g>
<g id="logout">
</g>
<g id="check1">
</g>
<g id="check2">
</g>
<g id="download">
</g>
<g id="plus">
</g>
<g id="attract">
</g>
<g id="communication">
</g>
<g id="share">
</g>
<g id="arrow-right">
</g>
<g id="arrow-left-single">
</g>
<g id="arrow-bottom">
</g>
<g id="arrow-top">
</g>
<g id="follow-twitter">
</g>
<g id="arrow-follow">
</g>
<g id="caution">
</g>
<g id="minus">
</g>
<g id="delete">
</g>
<g id="edit">
</g>
<g id="fixed">
</g>
<g id="arrow-right-double">
</g>
<g id="arrow-left-double">
</g>
<g id="sort">
</g>
<g id="newwindow">
</g>
<g id="resize">
</g>
<g id="follow-facebook">
</g>
<g id="mail-option">
</g>
<g id="clock">
</g>
<g id="redirect">
</g>
<g id="open">
</g>
<g id="key">
</g>
<g id="archive-in">
	<path fill-rule="evenodd" clip-rule="evenodd" d="M11.755,90.699V45.511c0,0-0.945-7.325,6.734-7.325H41.29v-6.202l-0.295,0.059
		c0,0-5.907-0.768-5.907-6.97c0,0,0.65-4.607-3.308-4.607H3.131c0,0-3.131-0.591-3.131,3.308c0,3.958,0.177,1.359,0.177,1.359
		L8.152,86.8C8.152,89.872,11.755,90.699,11.755,90.699z M70.825,38.186h13.822c0,0,3.131,0.118,3.131-2.776
		c0,0,0.413-3.131-2.894-3.131H70.825V38.186z M23.628,91.349h58.774c0,0,3.958-0.118,5.198-4.667l12.168-35.973
		c0,0,1.89-6.616-5.139-6.616h-6.084L56.057,79.535L22.742,44.093c-2.008,0-5.08,5.848-5.08,5.848v36.387
		C17.662,86.328,21.324,91.349,23.628,91.349z M56.057,67.721l20.674-23.628H64.918V14.558c0-3.249-2.599-5.907-5.907-5.907h-5.907
		c-3.249,0-5.907,2.658-5.907,5.907v29.535H35.383L56.057,67.721z"/>
</g>
<g id="archive-out">
</g>
<g id="attention_1_">
</g>
</svg>
