<?xml version="1.0" encoding="utf-8"?>
<!-- Generator: Adobe Illustrator 19.1.0, SVG Export Plug-In . SVG Version: 6.00 Build 0)  -->
<svg version="1.1" xmlns="http://www.w3.org/2000/svg" xmlns:xlink="http://www.w3.org/1999/xlink" x="0px" y="0px"
	 viewBox="0 0 100 100" enable-background="new 0 0 100 100" xml:space="preserve">
<g id="gear">
</g>
<g id="info">
</g>
<g id="fan">
</g>
<g id="mail-close1">
</g>
<g id="mail-close2">
</g>
<g id="mail-open">
</g>
<g id="campaign">
</g>
<g id="page">
</g>
<g id="preview">
</g>
<g id="conversion">
</g>
<g id="home">
</g>
<g id="instantwin">
</g>
<g id="button">
</g>
<g id="image">
</g>
<g id="text">
</g>
<g id="enquete">
</g>
<g id="write">
</g>
<g id="design">
</g>
<g id="branch-parallel">
</g>
<g id="branch-serial">
</g>
<g id="fangate">
</g>
<g id="youtube">
</g>
<g id="coupon">
</g>
<g id="radio">
</g>
<g id="logout">
</g>
<g id="check1">
</g>
<g id="check2">
</g>
<g id="download">
</g>
<g id="plus">
</g>
<g id="attract">
	<path fill-rule="evenodd" clip-rule="evenodd" d="M11.438,53.438c0,1.75-1.375,3.187-3.062,3.187s-3.062-1.437-3.062-3.187V38.25
		c0-1.75,1.375-3.187,3.062-3.187s3.062,1.437,3.062,3.187V53.438z M32.938,25.251l-22.375,2.375c0,0-10.562,0.437-10.562,10.937
		v14.5c0,0-0.25,12.062,10.125,12.125c0,0,12.687-0.062,12.687,4.375v26.125c0,0-0.687,4.187,3.375,4.187
		c0,0,11.937,1.937,6.062-10.625c4.437-4.75,0.5-9.562,0.5-9.562s4-4,0.125-9.437c0,0,3.437-4.875,3.437-7.687l0.25-33.312
		C36.563,29.251,37.188,25.251,32.938,25.251z M93.875,32.126l0.062-30.437c0-4-3.312,0.437-3.312,0.437
		c-15.5,24.75-47.437,22.75-47.437,22.75c-3.812,0-3.187,3.312-3.187,3.312V57c0,3.312,3.375,3.312,3.375,3.312
		c35.687,0,47.875,23.312,47.875,23.312s2.812,3.625,2.625-0.125V53.063c3.625-2,6.125-5.875,6.125-10.437
		S97.5,34.188,93.875,32.126z"/>
</g>
<g id="communication">
</g>
<g id="share">
</g>
<g id="arrow-right">
</g>
<g id="arrow-left-single">
</g>
<g id="arrow-bottom">
</g>
<g id="arrow-top">
</g>
<g id="follow-twitter">
</g>
<g id="arrow-follow">
</g>
<g id="caution">
</g>
<g id="minus">
</g>
<g id="delete">
</g>
<g id="edit">
</g>
<g id="fixed">
</g>
<g id="arrow-right-double">
</g>
<g id="arrow-left-double">
</g>
<g id="sort">
</g>
<g id="newwindow">
</g>
<g id="resize">
</g>
<g id="follow-facebook">
</g>
<g id="mail-option">
</g>
<g id="clock">
</g>
<g id="redirect">
</g>
<g id="open">
</g>
<g id="key">
</g>
<g id="archive-in">
</g>
<g id="archive-out">
</g>
<g id="attention_1_">
</g>
</svg>
