<?xml version="1.0" encoding="utf-8"?>
<!-- Generator: Adobe Illustrator 19.1.0, SVG Export Plug-In . SVG Version: 6.00 Build 0)  -->
<svg version="1.1" xmlns="http://www.w3.org/2000/svg" xmlns:xlink="http://www.w3.org/1999/xlink" x="0px" y="0px"
	 viewBox="0 0 100 100" enable-background="new 0 0 100 100" xml:space="preserve">
<g id="gear">
</g>
<g id="info">
</g>
<g id="fan">
</g>
<g id="mail-close1">
</g>
<g id="mail-close2">
</g>
<g id="mail-open">
</g>
<g id="campaign">
</g>
<g id="page">
</g>
<g id="preview">
</g>
<g id="conversion">
</g>
<g id="home">
</g>
<g id="instantwin">
</g>
<g id="button">
	<path fill="#040000" d="M58.349,35.784L13.533,35.8C6.05,35.8,0,29.65,0,22.067S6.05,8.334,13.533,8.334h57.482
		c7.466,0,13.516,6.15,13.516,13.733c0,5.533-3.217,10.3-7.867,12.466c-0.133-8.983-4.183-16.2-9.167-16.2
		c-5.067,0-9.167,7.467-9.167,16.666L58.349,35.784z M99.715,63.55c0.717-7.5-7.783-8.2-7.783-8.2c-2.417-6.8-8.75-3.283-8.75-3.283
		c-3.15-6.783-9.466-2.1-9.466-2.1c-0.783-0.233-2.067-23.4-2.717-23.5c-0.55-2.433-5.783-7.133-6.617,1.683
		c-0.367,16.683,0.2,25.333,0.2,25.333c-0.417,0.983,1.35,15.433-1.95,15.55c-1.9-1.083-4-5.9-4-5.9c-0.083,0.083-2.8-5.65-2.9-5.65
		c-5-6.966-8.2,1.3-5.45,4.567c-0.3,0.983,0.85,0.8,1.833,7.6c-0.15,1.583,4.167,5.85,4.167,5.85
		c5.283,8.167,12.433,11.483,12.433,11.483c3.4,2.817,1.45,4.45,1.45,4.45l24.683,0.233l1.3-4.217
		C101.498,77.616,99.715,63.55,99.715,63.55z"/>
</g>
<g id="image">
</g>
<g id="text">
</g>
<g id="enquete">
</g>
<g id="write">
</g>
<g id="design">
</g>
<g id="branch-parallel">
</g>
<g id="branch-serial">
</g>
<g id="fangate">
</g>
<g id="youtube">
</g>
<g id="coupon">
</g>
<g id="radio">
</g>
<g id="logout">
</g>
<g id="check1">
</g>
<g id="check2">
</g>
<g id="download">
</g>
<g id="plus">
</g>
<g id="attract">
</g>
<g id="communication">
</g>
<g id="share">
</g>
<g id="arrow-right">
</g>
<g id="arrow-left-single">
</g>
<g id="arrow-bottom">
</g>
<g id="arrow-top">
</g>
<g id="follow-twitter">
</g>
<g id="arrow-follow">
</g>
<g id="caution">
</g>
<g id="minus">
</g>
<g id="delete">
</g>
<g id="edit">
</g>
<g id="fixed">
</g>
<g id="arrow-right-double">
</g>
<g id="arrow-left-double">
</g>
<g id="sort">
</g>
<g id="newwindow">
</g>
<g id="resize">
</g>
<g id="follow-facebook">
</g>
<g id="mail-option">
</g>
<g id="clock">
</g>
<g id="redirect">
</g>
<g id="open">
</g>
<g id="key">
</g>
<g id="archive-in">
</g>
<g id="archive-out">
</g>
<g id="attention_1_">
</g>
</svg>
