<?xml version="1.0" encoding="utf-8"?>
<!-- Generator: Adobe Illustrator 18.1.1, SVG Export Plug-In . SVG Version: 6.00 Build 0)  -->
<svg version="1.1" xmlns="http://www.w3.org/2000/svg" xmlns:xlink="http://www.w3.org/1999/xlink" x="0px" y="0px"
	 viewBox="0 0 100 100" enable-background="new 0 0 100 100" xml:space="preserve">
<g id="gear">
</g>
<g id="info">
</g>
<g id="fan">
</g>
<g id="mail-close1">
</g>
<g id="mail-close2">
</g>
<g id="mail-open">
</g>
<g id="campaign">
</g>
<g id="page">
</g>
<g id="preview">
</g>
<g id="conversion">
</g>
<g id="home">
</g>
<g id="instantwin">
</g>
<g id="button">
</g>
<g id="image">
</g>
<g id="text">
</g>
<g id="enquete">
</g>
<g id="write">
</g>
<g id="design">
</g>
<g id="branch-parallel">
</g>
<g id="branch-serial">
</g>
<g id="favo">
</g>
<g id="youtube">
</g>
<g id="coupon">
</g>
<g id="radio">
</g>
<g id="logout">
</g>
<g id="check1">
</g>
<g id="check2">
</g>
<g id="download">
</g>
<g id="plus">
</g>
<g id="add">
</g>
<g id="attract">
</g>
<g id="communication">
</g>
<g id="share">
</g>
<g id="arrow-right">
</g>
<g id="arrow-left-single">
</g>
<g id="arrow-bottom">
</g>
<g id="arrow-top">
</g>
<g id="follow-twitter">
</g>
<g id="hashtag">
</g>
<g id="dashboard">
</g>
<g id="_x5F_staer">
</g>
<g id="retweet">
</g>
<g id="reply">
</g>
<g id="レイヤー_84">
</g>
<g id="arrow-follow">
</g>
<g id="caution">
</g>
<g id="question">
</g>
<g id="minus">
</g>
<g id="delete">
</g>
<g id="edit">
</g>
<g id="fixed">
</g>
<g id="arrow-right-double">
</g>
<g id="arrow-left-double">
</g>
<g id="sort">
</g>
<g id="newwindow">
</g>
<g id="resize">
</g>
<g id="follow-facebook">
</g>
<g id="mail-option">
</g>
<g id="clock">
</g>
<g id="redirect">
</g>
<g id="deadline">
</g>
<g id="gift">
</g>
<g id="open">
</g>
<g id="key">
</g>
<g id="archive-in">
</g>
<g id="archive-out">
</g>
<g id="attention_1_">
</g>
<g id="menu">
</g>
<g id="copy">
</g>
<g id="code">
</g>
<g id="images">
</g>
<g id="retweet_1_">
</g>
<g id="tweet">
</g>
<g id="follow-youtube">
</g>
<g id="re-enquete">
</g>
<g id="title">
</g>
<g id="photo">
</g>
<g id="ranking">
</g>
<g id="login">
</g>
<g id="contact">
</g>
<g id="win">
</g>
<g id="shipping">
</g>
<g id="trashbox">
</g>
<g id="present">
</g>
<g id="segment_1_">
</g>
<g id="up">
</g>
<g id="dwon">
</g>
<g id="all">
</g>
<g id="tag">
	<g id="レイヤー_96">
	</g>
</g>
<g id="flag">
</g>
<g id="rss">
</g>
<g id="comment">
</g>
<g id="cart">
	<path fill-rule="evenodd" clip-rule="evenodd" d="M80.867,0c-1.72,0-3.222,1.191-3.652,2.897l-3.732,14.814H8.616
		c-1.184,0-2.3,0.57-3.012,1.54c-0.712,0.969-0.938,2.225-0.611,3.392l11.615,41.279H61.84l-1.63,6.472H19.774v6.812H62.44
		c1.72,0,3.222-1.191,3.652-2.897L83.098,6.812h12.057V0H80.867z M35.473,37.24h13.124V24.523H35.473V37.24z M35.473,57.109h13.124
		V44.053H35.473V57.109z M55.248,24.523h16.519L68.562,37.24H55.248V24.523z M28.821,24.523V37.24H16.022l-3.578-12.717H28.821z
		 M17.939,44.053h10.882v13.056h-7.21L17.939,44.053z M55.248,57.109V44.053h11.598l-3.289,13.056H55.248z M60.876,81.675
		c-4.933,0-8.945,4.111-8.945,9.163c0,5.052,4.012,9.162,8.945,9.162c4.933,0,8.946-4.11,8.946-9.162
		C69.822,85.786,65.809,81.675,60.876,81.675 M60.876,93.188c-1.265,0-2.294-1.054-2.294-2.35s1.029-2.351,2.294-2.351
		c1.265,0,2.294,1.055,2.294,2.351S62.141,93.188,60.876,93.188 M27.195,81.675c-4.933,0-8.945,4.111-8.945,9.163
		c0,5.052,4.012,9.162,8.945,9.162s8.946-4.11,8.946-9.162C36.14,85.786,32.127,81.675,27.195,81.675 M27.195,93.188
		c-1.265,0-2.294-1.054-2.294-2.35s1.029-2.351,2.294-2.351c1.265,0,2.294,1.055,2.294,2.351S28.46,93.188,27.195,93.188"/>
</g>
</svg>
