<?xml version="1.0" encoding="utf-8"?>
<!-- Generator: Adobe Illustrator 19.1.0, SVG Export Plug-In . SVG Version: 6.00 Build 0)  -->
<svg version="1.1" xmlns="http://www.w3.org/2000/svg" xmlns:xlink="http://www.w3.org/1999/xlink" x="0px" y="0px"
	 viewBox="0 0 100 100" enable-background="new 0 0 100 100" xml:space="preserve">
<g id="gear">
</g>
<g id="info">
</g>
<g id="fan">
</g>
<g id="mail-close1">
</g>
<g id="mail-close2">
</g>
<g id="mail-open">
</g>
<g id="campaign">
</g>
<g id="page">
</g>
<g id="preview">
</g>
<g id="conversion">
</g>
<g id="home">
</g>
<g id="instantwin">
</g>
<g id="button">
</g>
<g id="image">
</g>
<g id="text">
</g>
<g id="enquete">
</g>
<g id="write">
</g>
<g id="design">
</g>
<g id="branch-parallel">
</g>
<g id="branch-serial">
</g>
<g id="fangate">
</g>
<g id="youtube">
</g>
<g id="coupon">
</g>
<g id="radio">
</g>
<g id="logout">
</g>
<g id="check1">
</g>
<g id="check2">
	<path fill-rule="evenodd" clip-rule="evenodd" d="M50,0C22.4,0,0,22.4,0,50c0,27.6,22.4,50,50,50s50-22.4,50-50
		C100,22.4,77.6,0,50,0z M80.95,34.95l-41.1,48.6L19.2,61.05c-2.15-2.35-1.7-5.7,1-7.55c2.7-1.85,6.6-1.45,8.75,0.9l10.5,11.45
		l31.45-37.2c2-2.4,5.9-2.95,8.7-1.2C82.35,29.2,82.95,32.55,80.95,34.95z"/>
</g>
<g id="download">
</g>
<g id="plus">
</g>
<g id="attract">
</g>
<g id="communication">
</g>
<g id="share">
</g>
<g id="arrow-right">
</g>
<g id="arrow-left-single">
</g>
<g id="arrow-bottom">
</g>
<g id="arrow-top">
</g>
<g id="follow-twitter">
</g>
<g id="arrow-follow">
</g>
<g id="caution">
</g>
<g id="minus">
</g>
<g id="delete">
</g>
<g id="edit">
</g>
<g id="fixed">
</g>
<g id="arrow-right-double">
</g>
<g id="arrow-left-double">
</g>
<g id="sort">
</g>
<g id="newwindow">
</g>
<g id="resize">
</g>
<g id="follow-facebook">
</g>
<g id="mail-option">
</g>
<g id="clock">
</g>
<g id="redirect">
</g>
<g id="open">
</g>
<g id="key">
</g>
<g id="archive-in">
</g>
<g id="archive-out">
</g>
<g id="attention_1_">
</g>
</svg>
