<?xml version="1.0" encoding="utf-8"?>
<!-- Generator: Adobe Illustrator 19.1.0, SVG Export Plug-In . SVG Version: 6.00 Build 0)  -->
<svg version="1.1" xmlns="http://www.w3.org/2000/svg" xmlns:xlink="http://www.w3.org/1999/xlink" x="0px" y="0px"
	 viewBox="0 0 100 100" enable-background="new 0 0 100 100" xml:space="preserve">
<g id="gear">
</g>
<g id="info">
</g>
<g id="fan">
</g>
<g id="mail-close1">
</g>
<g id="mail-close2">
</g>
<g id="mail-open">
</g>
<g id="campaign">
</g>
<g id="page">
</g>
<g id="preview">
</g>
<g id="conversion">
</g>
<g id="home">
</g>
<g id="instantwin">
</g>
<g id="button">
</g>
<g id="image">
</g>
<g id="text">
</g>
<g id="enquete">
</g>
<g id="write">
</g>
<g id="design">
</g>
<g id="branch-parallel">
</g>
<g id="branch-serial">
</g>
<g id="fangate">
</g>
<g id="youtube">
</g>
<g id="coupon">
</g>
<g id="radio">
</g>
<g id="logout">
</g>
<g id="check1">
</g>
<g id="check2">
</g>
<g id="download">
</g>
<g id="plus">
</g>
<g id="add">
</g>
<g id="attract">
</g>
<g id="communication">
</g>
<g id="share">
</g>
<g id="arrow-right">
</g>
<g id="arrow-left-single">
</g>
<g id="arrow-bottom">
</g>
<g id="arrow-top">
</g>
<g id="follow-twitter">
</g>
<g id="hashtag">
</g>
<g id="dashboard">
</g>
<g id="favo">
</g>
<g id="retweet">
</g>
<g id="reply">
</g>
<g id="arrow-follow">
</g>
<g id="caution">
</g>
<g id="minus">
</g>
<g id="delete">
</g>
<g id="edit">
</g>
<g id="fixed">
</g>
<g id="arrow-right-double">
</g>
<g id="arrow-left-double">
</g>
<g id="sort">
</g>
<g id="newwindow">
</g>
<g id="resize">
</g>
<g id="follow-facebook">
</g>
<g id="mail-option">
</g>
<g id="clock">
</g>
<g id="redirect">
</g>
<g id="deadline">
</g>
<g id="gift">
</g>
<g id="open">
</g>
<g id="key">
</g>
<g id="archive-in">
</g>
<g id="archive-out">
</g>
<g id="attention_1_">
</g>
<g id="menu">
</g>
<g id="copy">
</g>
<g id="code">
	<g>
		<polygon fill-rule="evenodd" clip-rule="evenodd" points="18.435,32.609 13.087,32.609 13.609,45.739 2.652,38.609 0,43.565 
			11.478,49.565 0,55.609 2.652,60.522 13.609,53.391 13.087,67.391 18.435,67.391 17.87,53.391 28.87,60.522 31.565,55.609 
			20.043,49.565 31.565,43.565 28.87,38.609 17.87,45.739 		"/>
		<polygon fill-rule="evenodd" clip-rule="evenodd" points="52.652,32.609 47.304,32.609 47.826,45.739 36.913,38.609 
			34.217,43.565 45.696,49.565 34.217,55.609 36.913,60.522 47.826,53.391 47.304,67.391 52.652,67.391 52.13,53.391 63.087,60.522 
			65.783,55.609 54.261,49.565 65.783,43.565 63.087,38.609 52.13,45.739 		"/>
		<polygon fill-rule="evenodd" clip-rule="evenodd" points="86.87,32.609 81.522,32.609 82.043,45.739 71.13,38.609 68.435,43.565 
			79.913,49.565 68.435,55.609 71.13,60.522 82.043,53.391 81.522,67.391 86.87,67.391 86.348,53.391 97.348,60.522 100,55.609 
			88.478,49.565 100,43.565 97.348,38.609 86.348,45.739 		"/>
	</g>
</g>
<g id="images">
</g>
<g id="レイヤー_70">
</g>
<g id="tweet">
</g>
<g id="follow-youtube">
</g>
<g id="re-enquete">
</g>
<g id="title">
</g>
<g id="photo">
</g>
</svg>
