<?xml version="1.0" encoding="utf-8"?>
<!-- Generator: Adobe Illustrator 19.1.0, SVG Export Plug-In . SVG Version: 6.00 Build 0)  -->
<svg version="1.1" xmlns="http://www.w3.org/2000/svg" xmlns:xlink="http://www.w3.org/1999/xlink" x="0px" y="0px"
	 viewBox="0 0 100 100" enable-background="new 0 0 100 100" xml:space="preserve">
<g id="gear">
</g>
<g id="info">
</g>
<g id="fan">
</g>
<g id="mail-close1">
</g>
<g id="mail-close2">
</g>
<g id="mail-open">
</g>
<g id="campaign">
</g>
<g id="page">
</g>
<g id="preview">
</g>
<g id="conversion">
</g>
<g id="home">
</g>
<g id="instantwin">
</g>
<g id="button">
</g>
<g id="image">
</g>
<g id="text">
</g>
<g id="enquete">
</g>
<g id="write">
</g>
<g id="design">
</g>
<g id="branch-parallel">
</g>
<g id="branch-serial">
</g>
<g id="fangate">
</g>
<g id="youtube">
</g>
<g id="coupon">
</g>
<g id="radio">
</g>
<g id="logout">
</g>
<g id="check1">
</g>
<g id="check2">
</g>
<g id="download">
</g>
<g id="plus">
</g>
<g id="attract">
</g>
<g id="communication">
	<path d="M99.837,79.503l-3.636-10.85c1.124-2.715,1.692-5.566,1.692-8.496c0-13.063-11.464-23.703-25.657-23.968
		C66.932,23.953,54.061,15.88,39.434,15.88c-19.439,0-35.252,14.432-35.252,32.17c0,4.048,0.829,8.009,2.463,11.796L0.172,78.531
		c-0.384,1.116-0.114,2.354,0.703,3.206c0.602,0.628,1.425,0.967,2.269,0.967c0.304,0,0.608-0.043,0.906-0.134l19.393-5.842
		c4.938,2.288,10.438,3.492,15.99,3.492c4.947,0,9.697-0.97,14.19-2.781c4.851,4.258,11.308,6.681,18.074,6.681
		c4.091,0,8.135-0.881,11.771-2.558l12.895,2.047c1.078,0.174,2.18-0.235,2.893-1.075C99.966,81.695,100.187,80.545,99.837,79.503z
		 M25.133,70.559c-0.719-0.361-1.557-0.439-2.328-0.206L8.132,74.773l4.871-14.059c0.27-0.785,0.221-1.646-0.141-2.395
		c-1.585-3.289-2.389-6.744-2.389-10.269c0-14.271,12.993-25.88,28.962-25.88c12.803,0,23.944,7.338,27.663,18.08
		c0.012,0.049,0.089,0.318,0.107,0.367c0.212,0.636,0.399,1.271,0.55,1.984l0.169,0.72c0.104,0.524,0.181,1.047,0.273,1.648
		l0.092,0.746c0.083,0.769,0.138,1.539,0.138,2.335c0,1.144-0.129,2.317-0.243,3.212l-0.138,0.871
		c-0.169,0.869-0.362,1.711-0.617,2.557l-0.2,0.66c-0.335,1.029-0.725,1.999-1.102,2.795l-0.359,0.643
		c-0.418,0.838-0.894,1.649-1.336,2.337l-0.427,0.613c-1.327,1.876-2.865,3.565-4.542,4.998l-0.338,0.284
		c-0.9,0.725-1.8,1.393-2.859,2.101c-1.116,0.693-2.196,1.285-3.303,1.811C44.306,75.02,33.62,74.864,25.133,70.559z M83.478,75.196
		c-0.651-0.111-1.327,0.002-1.919,0.304c-6.728,3.432-15.61,2.891-21.739-1.192c0.018-0.012,0.031-0.021,0.037-0.025
		c1.118-0.746,2.171-1.525,3.258-2.403l0.405-0.339c2.101-1.793,3.992-3.871,5.632-6.188l0.501-0.723
		c0.633-0.978,1.225-1.992,1.671-2.901l0.372-0.671c0.596-1.227,1.093-2.46,1.535-3.831l0.218-0.719
		c0.316-1.044,0.559-2.091,0.789-3.274l0.172-1.076c0.15-1.192,0.307-2.612,0.307-4.109c0-1.027-0.068-2.018-0.178-3.051
		l-0.135-1.047c-0.068-0.442-0.135-0.884-0.218-1.362c9.806,1.093,17.418,8.554,17.418,17.567c0,2.412-0.54,4.755-1.606,6.966
		c-0.356,0.74-0.412,1.588-0.15,2.366l2.377,7.094L83.478,75.196z"/>
</g>
<g id="share">
</g>
<g id="arrow-right">
</g>
<g id="arrow-left-single">
</g>
<g id="arrow-bottom">
</g>
<g id="arrow-top">
</g>
<g id="follow-twitter">
</g>
<g id="arrow-follow">
</g>
<g id="caution">
</g>
<g id="minus">
</g>
<g id="delete">
</g>
<g id="edit">
</g>
<g id="fixed">
</g>
<g id="arrow-right-double">
</g>
<g id="arrow-left-double">
</g>
<g id="sort">
</g>
<g id="newwindow">
</g>
<g id="resize">
</g>
<g id="follow-facebook">
</g>
<g id="mail-option">
</g>
<g id="clock">
</g>
<g id="redirect">
</g>
<g id="open">
</g>
<g id="key">
</g>
<g id="archive-in">
</g>
<g id="archive-out">
</g>
<g id="attention_1_">
</g>
</svg>
