<?xml version="1.0" encoding="utf-8"?>
<!-- Generator: Adobe Illustrator 18.1.1, SVG Export Plug-In . SVG Version: 6.00 Build 0)  -->
<svg version="1.1" xmlns="http://www.w3.org/2000/svg" xmlns:xlink="http://www.w3.org/1999/xlink" x="0px" y="0px"
	 viewBox="0 0 100 100" enable-background="new 0 0 100 100" xml:space="preserve">
<g id="gear">
</g>
<g id="info">
</g>
<g id="fan">
</g>
<g id="mail-close1">
</g>
<g id="mail-close2">
</g>
<g id="mail-open">
</g>
<g id="campaign">
</g>
<g id="page">
</g>
<g id="preview">
</g>
<g id="conversion">
</g>
<g id="home">
</g>
<g id="instantwin">
</g>
<g id="button">
</g>
<g id="image">
</g>
<g id="text">
</g>
<g id="enquete">
</g>
<g id="write">
</g>
<g id="design">
</g>
<g id="branch-parallel">
</g>
<g id="branch-serial">
</g>
<g id="favo">
</g>
<g id="youtube">
</g>
<g id="coupon">
</g>
<g id="radio">
</g>
<g id="logout">
</g>
<g id="check1">
</g>
<g id="check2">
</g>
<g id="download">
</g>
<g id="plus">
</g>
<g id="add">
</g>
<g id="attract">
</g>
<g id="communication">
</g>
<g id="share">
</g>
<g id="arrow-right">
</g>
<g id="arrow-left-single">
</g>
<g id="arrow-bottom">
</g>
<g id="arrow-top">
</g>
<g id="follow-twitter">
</g>
<g id="hashtag">
</g>
<g id="dashboard">
</g>
<g id="_x5F_staer">
</g>
<g id="retweet">
</g>
<g id="reply">
</g>
<g id="レイヤー_84">
</g>
<g id="arrow-follow">
</g>
<g id="caution">
</g>
<g id="question">
</g>
<g id="minus">
</g>
<g id="delete">
</g>
<g id="edit">
</g>
<g id="fixed">
</g>
<g id="arrow-right-double">
</g>
<g id="arrow-left-double">
</g>
<g id="sort">
</g>
<g id="newwindow">
</g>
<g id="resize">
</g>
<g id="follow-facebook">
</g>
<g id="mail-option">
</g>
<g id="clock">
</g>
<g id="redirect">
</g>
<g id="deadline">
</g>
<g id="gift">
</g>
<g id="open">
</g>
<g id="key">
</g>
<g id="archive-in">
</g>
<g id="archive-out">
</g>
<g id="attention_1_">
</g>
<g id="menu">
</g>
<g id="copy">
</g>
<g id="code">
</g>
<g id="images">
</g>
<g id="retweet_1_">
</g>
<g id="tweet">
</g>
<g id="follow-youtube">
</g>
<g id="re-enquete">
</g>
<g id="title">
</g>
<g id="photo">
</g>
<g id="ranking">
</g>
<g id="login">
</g>
<g id="contact">
</g>
<g id="win">
</g>
<g id="shipping">
</g>
<g id="trashbox">
</g>
<g id="present">
</g>
<g id="segment_1_">
</g>
<g id="up">
</g>
<g id="dwon">
</g>
<g id="all">
</g>
<g id="tag">
	<g id="レイヤー_96">
	</g>
</g>
<g id="flag">
</g>
<g id="rss">
</g>
<g id="comment">
	<g>
		<path d="M51.757,14.242c21.579,0,39.136,15.51,39.136,34.574c0,19.064-17.556,34.574-39.136,34.574
			c-5.889,0-11.559-1.136-16.853-3.377c-1.13-0.478-2.338-0.721-3.551-0.721c-0.712,0-1.426,0.084-2.127,0.252L11.425,83.82
			l4.584-15.481c0.63-2.128,0.462-4.413-0.474-6.426c-1.933-4.157-2.913-8.564-2.913-13.097
			C12.622,29.752,30.178,14.242,51.757,14.242 M51.757,5.135c-26.644,0-48.243,19.557-48.243,43.682
			c0,6.006,1.34,11.728,3.762,16.937L0.168,89.759c-0.775,2.617,1.236,5.106,3.791,5.106c0.309,0,0.626-0.036,0.948-0.114
			L31.354,88.4c6.198,2.624,13.109,4.098,20.403,4.098C78.401,92.498,100,72.941,100,48.816C100,24.691,78.401,5.135,51.757,5.135
			L51.757,5.135z"/>
	</g>
</g>
</svg>
