<?xml version="1.0" encoding="utf-8"?>
<!-- Generator: Adobe Illustrator 18.1.1, SVG Export Plug-In . SVG Version: 6.00 Build 0)  -->
<svg version="1.1" xmlns="http://www.w3.org/2000/svg" xmlns:xlink="http://www.w3.org/1999/xlink" x="0px" y="0px"
	 viewBox="0 0 100 100" enable-background="new 0 0 100 100" xml:space="preserve">
<g id="gear">
</g>
<g id="info">
</g>
<g id="fan">
</g>
<g id="mail-close1">
</g>
<g id="mail-close2">
</g>
<g id="mail-open">
</g>
<g id="campaign">
</g>
<g id="page">
</g>
<g id="preview">
</g>
<g id="conversion">
</g>
<g id="home">
</g>
<g id="instantwin">
</g>
<g id="button">
</g>
<g id="image">
</g>
<g id="text">
</g>
<g id="enquete">
</g>
<g id="write">
</g>
<g id="design">
</g>
<g id="branch-parallel">
</g>
<g id="branch-serial">
</g>
<g id="fangate">
</g>
<g id="youtube">
</g>
<g id="coupon">
</g>
<g id="radio">
</g>
<g id="logout">
</g>
<g id="check1">
</g>
<g id="check2">
</g>
<g id="download">
</g>
<g id="plus">
</g>
<g id="add">
</g>
<g id="attract">
</g>
<g id="communication">
</g>
<g id="share">
</g>
<g id="arrow-right">
</g>
<g id="arrow-left-single">
</g>
<g id="arrow-bottom">
</g>
<g id="arrow-top">
</g>
<g id="follow-twitter">
</g>
<g id="hashtag">
</g>
<g id="dashboard">
</g>
<g id="favo">
</g>
<g id="retweet">
</g>
<g id="reply">
</g>
<g id="arrow-follow">
</g>
<g id="caution">
</g>
<g id="question">
</g>
<g id="minus">
</g>
<g id="delete">
</g>
<g id="edit">
</g>
<g id="fixed">
</g>
<g id="arrow-right-double">
</g>
<g id="arrow-left-double">
</g>
<g id="sort">
</g>
<g id="newwindow">
</g>
<g id="resize">
</g>
<g id="follow-facebook">
</g>
<g id="mail-option">
</g>
<g id="clock">
</g>
<g id="redirect">
</g>
<g id="deadline">
</g>
<g id="gift">
</g>
<g id="open">
</g>
<g id="key">
</g>
<g id="archive-in">
</g>
<g id="archive-out">
</g>
<g id="attention_1_">
</g>
<g id="menu">
</g>
<g id="copy">
</g>
<g id="code">
</g>
<g id="images">
</g>
<g id="レイヤー_70">
</g>
<g id="tweet">
</g>
<g id="follow-youtube">
</g>
<g id="re-enquete">
</g>
<g id="title">
</g>
<g id="photo">
</g>
<g id="ranking">
</g>
<g id="login">
</g>
<g id="contact">
	<g>
		<path d="M67.607,61.694c-0.449,1.524-0.672,2.644-0.672,3.36c0,2.151,1.298,3.225,3.898,3.225c1.881,0,3.807-0.692,5.779-2.083
			c1.97-1.388,3.74-3.293,5.309-5.712c1.568-2.42,2.867-5.219,3.898-8.401c1.03-3.18,1.546-6.563,1.546-10.148
			c0-5.286-0.941-9.967-2.822-14.046c-1.882-4.076-4.436-7.526-7.661-10.348c-3.227-2.823-6.969-4.974-11.224-6.452
			C61.402,9.61,56.899,8.871,52.15,8.871c-5.735,0-11.021,1.076-15.86,3.227c-4.838,2.151-9.005,5.086-12.499,8.804
			c-3.495,3.72-6.23,8.087-8.199,13.105c-1.972,5.019-2.957,10.44-2.957,16.264c0,5.914,1.031,11.381,3.097,16.397
			c2.065,5.02,4.915,9.342,8.55,12.97c3.636,3.63,7.899,6.452,12.793,8.469c4.893,2.016,10.166,3.024,15.824,3.024
			c6.463,0,12.499-1.163,18.111-3.495c5.612-2.329,10.033-5.689,13.264-10.08h10.485c-1.882,3.406-4.324,6.498-7.326,9.274
			c-3.003,2.778-6.384,5.131-10.147,7.056c-3.764,1.928-7.752,3.428-11.962,4.503C61.109,99.463,56.854,100,52.553,100
			c-7.08,0-13.688-1.299-19.825-3.898c-6.138-2.597-11.471-6.159-15.994-10.685c-4.526-4.523-8.089-9.855-10.686-15.995
			c-2.6-6.136-3.898-12.702-3.898-19.69c0-6.9,1.321-13.373,3.965-19.422c2.642-6.049,6.227-11.311,10.753-15.794
			c4.525-4.48,9.812-8.018,15.86-10.618C38.777,1.301,45.205,0,52.016,0c6.271,0,12.184,1.031,17.741,3.092
			c5.556,2.062,10.417,4.906,14.584,8.534c4.166,3.63,7.46,7.931,9.879,12.903c2.419,4.974,3.63,10.417,3.63,16.332
			c0,5.735-1.055,10.933-3.16,15.591c-2.106,4.661-4.751,8.649-7.93,11.962c-3.182,3.316-6.61,5.87-10.283,7.661
			c-3.675,1.794-7.08,2.689-10.215,2.689c-2.33,0-4.301-0.74-5.914-2.217c-1.613-1.479-2.465-3.607-2.554-6.385h-0.538
			c-2.062,2.151-4.526,4.123-7.392,5.914c-2.87,1.794-5.96,2.689-9.275,2.689c-2.868,0-5.443-0.559-7.728-1.681
			c-2.285-1.118-4.213-2.62-5.78-4.503c-1.568-1.881-2.778-4.098-3.628-6.653c-0.853-2.554-1.278-5.309-1.278-8.266
			c0-4.388,0.716-8.736,2.151-13.037c1.433-4.301,3.449-8.132,6.049-11.492c2.599-3.36,5.757-6.069,9.477-8.131
			c3.717-2.061,7.863-3.092,12.432-3.092c3.135,0,6.002,0.786,8.602,2.352c2.597,1.569,4.523,4.189,5.779,7.863h0.27l2.151-7.661
			h9.812L67.607,61.694z M52.956,32.392c-3.137,0-5.914,0.696-8.333,2.084c-2.419,1.39-4.459,3.271-6.115,5.645
			c-1.66,2.375-2.913,5.063-3.763,8.064c-0.854,3.003-1.278,6.115-1.278,9.342c0,3.315,0.74,5.937,2.217,7.863
			c1.479,1.927,3.92,2.889,7.326,2.889c2.687,0,5.174-0.783,7.46-2.352c2.284-1.566,4.233-3.515,5.847-5.846
			c1.613-2.329,2.866-4.906,3.763-7.729c0.895-2.822,1.344-5.531,1.344-8.131c0-3.135-0.696-5.891-2.084-8.266
			C57.951,33.581,55.823,32.392,52.956,32.392z"/>
	</g>
</g>
</svg>
