<?xml version="1.0" encoding="utf-8"?>
<!-- Generator: Adobe Illustrator 19.1.0, SVG Export Plug-In . SVG Version: 6.00 Build 0)  -->
<svg version="1.1" xmlns="http://www.w3.org/2000/svg" xmlns:xlink="http://www.w3.org/1999/xlink" x="0px" y="0px"
	 viewBox="0 0 100 100" enable-background="new 0 0 100 100" xml:space="preserve">
<g id="gear">
</g>
<g id="info">
</g>
<g id="fan">
</g>
<g id="mail-close1">
</g>
<g id="mail-close2">
</g>
<g id="mail-open">
</g>
<g id="campaign">
</g>
<g id="page">
</g>
<g id="preview">
</g>
<g id="conversion">
</g>
<g id="home">
</g>
<g id="instantwin">
</g>
<g id="button">
</g>
<g id="image">
</g>
<g id="text">
</g>
<g id="enquete">
</g>
<g id="write">
</g>
<g id="design">
</g>
<g id="branch-parallel">
</g>
<g id="branch-serial">
</g>
<g id="fangate">
</g>
<g id="youtube">
</g>
<g id="coupon">
</g>
<g id="radio">
</g>
<g id="logout">
</g>
<g id="check1">
</g>
<g id="check2">
</g>
<g id="download">
</g>
<g id="plus">
</g>
<g id="add">
</g>
<g id="attract">
</g>
<g id="communication">
</g>
<g id="share">
</g>
<g id="arrow-right">
</g>
<g id="arrow-left-single">
</g>
<g id="arrow-bottom">
</g>
<g id="arrow-top">
</g>
<g id="follow-twitter">
</g>
<g id="hashtag">
</g>
<g id="dashboard">
</g>
<g id="favo">
</g>
<g id="retweet">
</g>
<g id="reply">
</g>
<g id="arrow-follow">
</g>
<g id="caution">
</g>
<g id="minus">
</g>
<g id="delete">
</g>
<g id="edit">
</g>
<g id="fixed">
</g>
<g id="arrow-right-double">
</g>
<g id="arrow-left-double">
</g>
<g id="sort">
</g>
<g id="newwindow">
</g>
<g id="resize">
</g>
<g id="follow-facebook">
</g>
<g id="mail-option">
</g>
<g id="clock">
</g>
<g id="redirect">
</g>
<g id="deadline">
</g>
<g id="gift">
</g>
<g id="open">
</g>
<g id="key">
</g>
<g id="archive-in">
</g>
<g id="archive-out">
</g>
<g id="attention_1_">
</g>
<g id="menu">
</g>
<g id="copy">
	<path fill-rule="evenodd" clip-rule="evenodd" d="M91.943,22.567H57.051L38.256,2.176c0,0-8.711-6.259-18.519,2.452
		c0,0-9.637,7.656-2.677,17.939H8.057c-1.783,0-3.226,1.443-3.226,3.226v70.98c0,1.783,1.443,3.226,3.226,3.226h83.886
		c1.783,0,3.226-1.443,3.226-3.226v-70.98C95.169,24.01,93.726,22.567,91.943,22.567z M22.189,20.309c0,0-5.614-5.485,1.678-10.905
		c0,0,5.937-7.356,12.776-0.968L49.55,22.567h-3.636c-2.289-2.368-3.979-4.13-3.979-4.13s-2.065-2.258-4.452-0.258
		c-0.387,0.645-1.613,2.065,0.839,4.323l0.063,0.065H24.441L22.189,20.309z M44.726,29.02l8.435,8.582c0,0,5.485,4.969,2.129,8.26
		c0,0-5.291,4.84-9.615-2L30.876,29.02H44.726z M88.716,93.547H11.284V29.02h11.718L43.16,48.959
		c7.421,7.808,15.616,0.258,15.616,0.258c7.872-7.356-0.581-14.325-0.581-14.325c-0.405-0.228-3.001-2.816-6.002-5.872h3.25
		l16.561,18.132c0,0,4.646,8.776-1.936,14.777c0,0-6.904,8.582-15.874,0.323L27.157,35.408c0,0-2.517-2.71-5.162-0.258
		c0,0-0.903,2.968,1.742,5.162l30.263,29.166c0,0,10.195,5.227,19.874-3.872c0,0,10.453-13.422,1.613-23.036L62.998,29.02h25.718
		V93.547z"/>
</g>
<g id="images">
</g>
<g id="レイヤー_70">
</g>
<g id="tweet">
</g>
<g id="follow-youtube">
</g>
<g id="re-enquete">
</g>
<g id="title">
</g>
<g id="photo">
</g>
</svg>
