<?xml version="1.0" encoding="utf-8"?>
<!-- Generator: Adobe Illustrator 19.1.0, SVG Export Plug-In . SVG Version: 6.00 Build 0)  -->
<svg version="1.1" xmlns="http://www.w3.org/2000/svg" xmlns:xlink="http://www.w3.org/1999/xlink" x="0px" y="0px"
	 viewBox="0 0 100 100" enable-background="new 0 0 100 100" xml:space="preserve">
<g id="gear">
</g>
<g id="info">
</g>
<g id="fan">
</g>
<g id="mail-close1">
</g>
<g id="mail-close2">
</g>
<g id="mail-open">
</g>
<g id="campaign">
</g>
<g id="page">
</g>
<g id="preview">
</g>
<g id="conversion">
</g>
<g id="home">
</g>
<g id="instantwin">
</g>
<g id="button">
</g>
<g id="image">
</g>
<g id="text">
</g>
<g id="enquete">
</g>
<g id="write">
</g>
<g id="design">
</g>
<g id="branch-parallel">
</g>
<g id="branch-serial">
</g>
<g id="fangate">
</g>
<g id="youtube">
</g>
<g id="coupon">
	<path fill-rule="evenodd" clip-rule="evenodd" d="M50.409,81.701h35.682c2.409,0,4.818,1.5,4.818-0.864v0.5V41.974
		c0-2.409-1.955-5.727-4.364-5.727H86.5H50.818L50.409,81.701z M43.455,27.156h44.455c6.682,0,12.091,7.636,12.091,14.273v-1.273
		v41.182c0,6.636-5.409,9.455-12.091,9.455h-1.818H43.045L43.455,27.156z M29.909,86.247h-9.864
		c-2.409,0.227-6.864-0.364-7.227-2.818l0.091,0.5L7,45.338c-0.318-2.227,1.227-4.136,3.455-4.545l1.682-0.318l9.136-1.636
		L29.909,86.247z M27.273,31.701H9.682c-6.091,1.227-10.409,8.227-9.5,14.318L0,44.883l5.727,39.864c1,6.818,7,11.364,13.727,10.773
		l1.864-0.182h17.909C39.227,95.338,27.227,31.701,27.273,31.701z M41.227,4.429l12.455,5.045l-16,15.045L41.227,4.429z
		 M29.227,24.52L13.182,9.474l12.455-5.045L29.227,24.52z"/>
</g>
<g id="radio">
</g>
<g id="logout">
</g>
<g id="check1">
</g>
<g id="check2">
</g>
<g id="download">
</g>
<g id="plus">
</g>
<g id="attract">
</g>
<g id="communication">
</g>
<g id="share">
</g>
<g id="arrow-right">
</g>
<g id="arrow-left-single">
</g>
<g id="arrow-bottom">
</g>
<g id="arrow-top">
</g>
<g id="follow-twitter">
</g>
<g id="arrow-follow">
</g>
<g id="caution">
</g>
<g id="minus">
</g>
<g id="delete">
</g>
<g id="edit">
</g>
<g id="fixed">
</g>
<g id="arrow-right-double">
</g>
<g id="arrow-left-double">
</g>
<g id="sort">
</g>
<g id="newwindow">
</g>
<g id="resize">
</g>
<g id="follow-facebook">
</g>
<g id="mail-option">
</g>
<g id="clock">
</g>
<g id="redirect">
</g>
<g id="open">
</g>
<g id="key">
</g>
<g id="archive-in">
</g>
<g id="archive-out">
</g>
<g id="attention_1_">
</g>
</svg>
