<?xml version="1.0" encoding="utf-8"?>
<!-- Generator: Adobe Illustrator 19.1.0, SVG Export Plug-In . SVG Version: 6.00 Build 0)  -->
<svg version="1.1" xmlns="http://www.w3.org/2000/svg" xmlns:xlink="http://www.w3.org/1999/xlink" x="0px" y="0px"
	 viewBox="0 0 100 100" enable-background="new 0 0 100 100" xml:space="preserve">
<g id="gear">
</g>
<g id="info">
</g>
<g id="fan">
</g>
<g id="mail-close1">
</g>
<g id="mail-close2">
</g>
<g id="mail-open">
</g>
<g id="campaign">
</g>
<g id="page">
</g>
<g id="preview">
</g>
<g id="conversion">
</g>
<g id="home">
</g>
<g id="instantwin">
</g>
<g id="button">
</g>
<g id="image">
</g>
<g id="text">
</g>
<g id="enquete">
</g>
<g id="write">
</g>
<g id="design">
</g>
<g id="branch-parallel">
</g>
<g id="branch-serial">
</g>
<g id="fangate">
</g>
<g id="youtube">
</g>
<g id="coupon">
</g>
<g id="radio">
</g>
<g id="logout">
</g>
<g id="check1">
</g>
<g id="check2">
</g>
<g id="download">
</g>
<g id="plus">
</g>
<g id="add">
</g>
<g id="attract">
</g>
<g id="communication">
</g>
<g id="share">
</g>
<g id="arrow-right">
</g>
<g id="arrow-left-single">
</g>
<g id="arrow-bottom">
</g>
<g id="arrow-top">
</g>
<g id="follow-twitter">
</g>
<g id="hashtag">
</g>
<g id="dashboard">
	<path fill-rule="evenodd" clip-rule="evenodd" d="M79.956,31.6c0,0-1.067-2.978-1.067-4.622c0-5.867,4.711-10.622,10.533-10.622
		s10.533,4.756,10.533,10.622s-4.711,10.578-10.533,10.578c-0.4,0-0.8,0-1.2-0.044L69.378,59.244c1.422,1.867,2.267,4.222,2.267,6.8
		c0,5.911-4.756,10.711-10.622,10.711s-10.356-4.222-10.356-10.133L37.156,55.778c-1.911,2.044-4.444,3.111-7.467,3.111
		c-3.867,0-6.533-2.133-8.356-5.289L8.889,58.4v23.822c0,3.778,3.733,3.333,3.733,3.333h83.867c0,0,3.511,2.756,3.511,5.867
		c0,3.111-3.511,3.022-3.511,3.022H10.444C-0.089,94.444,0,83.467,0,83.467V9.422c0-3.333,5.956-3.867,5.956-3.867
		c3.289,0,2.933,3.422,2.933,3.422v40.178l11.467-3.733c1.422-4.178,2.933-7.778,9.333-7.778c5.822,0,10.533,4.533,10.533,10.4
		l13.333,10.178c2.089-3.111,7.911-2.844,7.911-2.844L79.956,31.6z"/>
</g>
<g id="favo">
</g>
<g id="retweet">
</g>
<g id="reply">
</g>
<g id="arrow-follow">
</g>
<g id="caution">
</g>
<g id="minus">
</g>
<g id="delete">
</g>
<g id="edit">
</g>
<g id="fixed">
</g>
<g id="arrow-right-double">
</g>
<g id="arrow-left-double">
</g>
<g id="sort">
</g>
<g id="newwindow">
</g>
<g id="resize">
</g>
<g id="follow-facebook">
</g>
<g id="mail-option">
</g>
<g id="clock">
</g>
<g id="redirect">
</g>
<g id="deadline">
</g>
<g id="gift">
</g>
<g id="open">
</g>
<g id="key">
</g>
<g id="archive-in">
</g>
<g id="archive-out">
</g>
<g id="attention_1_">
</g>
<g id="menu">
</g>
<g id="copy">
</g>
<g id="images">
</g>
<g id="レイヤー_70">
</g>
<g id="tweet">
</g>
<g id="follow-youtube">
</g>
<g id="re-enquete">
</g>
<g id="title">
</g>
<g id="photo">
</g>
</svg>
