<?xml version="1.0" encoding="utf-8"?>
<!-- Generator: Adobe Illustrator 19.1.0, SVG Export Plug-In . SVG Version: 6.00 Build 0)  -->
<svg version="1.1" xmlns="http://www.w3.org/2000/svg" xmlns:xlink="http://www.w3.org/1999/xlink" x="0px" y="0px"
	 viewBox="0 0 100 100" enable-background="new 0 0 100 100" xml:space="preserve">
<g id="gear">
</g>
<g id="info">
</g>
<g id="fan">
</g>
<g id="mail-close1">
</g>
<g id="mail-close2">
</g>
<g id="mail-open">
</g>
<g id="campaign">
</g>
<g id="page">
</g>
<g id="preview">
</g>
<g id="conversion">
</g>
<g id="home">
</g>
<g id="instantwin">
</g>
<g id="button">
</g>
<g id="image">
</g>
<g id="text">
</g>
<g id="enquete">
</g>
<g id="write">
</g>
<g id="design">
</g>
<g id="branch-parallel">
</g>
<g id="branch-serial">
</g>
<g id="fangate">
</g>
<g id="youtube">
</g>
<g id="coupon">
</g>
<g id="radio">
</g>
<g id="logout">
</g>
<g id="check1">
</g>
<g id="check2">
</g>
<g id="download">
</g>
<g id="plus">
</g>
<g id="add">
</g>
<g id="attract">
</g>
<g id="communication">
</g>
<g id="share">
</g>
<g id="arrow-right">
</g>
<g id="arrow-left-single">
</g>
<g id="arrow-bottom">
</g>
<g id="arrow-top">
</g>
<g id="follow-twitter">
</g>
<g id="hashtag">
</g>
<g id="dashboard">
</g>
<g id="favo">
</g>
<g id="retweet">
</g>
<g id="reply">
</g>
<g id="arrow-follow">
</g>
<g id="caution">
</g>
<g id="minus">
</g>
<g id="delete">
</g>
<g id="edit">
</g>
<g id="fixed">
</g>
<g id="arrow-right-double">
</g>
<g id="arrow-left-double">
</g>
<g id="sort">
</g>
<g id="newwindow">
</g>
<g id="resize">
</g>
<g id="follow-facebook">
</g>
<g id="mail-option">
</g>
<g id="clock">
</g>
<g id="redirect">
</g>
<g id="deadline">
	<path fill-rule="evenodd" clip-rule="evenodd" d="M25,21.435c-3.957,0-7.13-3.217-7.13-7.13V7.13C17.87,3.217,21.043,0,25,0
		s7.13,3.217,7.13,7.13v7.174C32.13,18.217,28.957,21.435,25,21.435z M75,21.435c-3.957,0-7.13-3.217-7.13-7.13V7.13
		C67.87,3.217,71.043,0,75,0s7.13,3.217,7.13,7.13v7.174C82.13,18.217,78.957,21.435,75,21.435z M71.565,56.609
		c-2,1.783-4.652,3.391-6,5.478c-1.609,2.522-1.87,4.261-2.826,7.348c-0.739,2.435-1.217,5.957-1.478,9.261h-7.783
		c0.609-4.609,1.565-9.13,2.913-12.217c1.304-3.13,3.391-5.87,6.217-9.435H49.87V49.87h21.696V56.609z M36.522,49.957h6.391v28.739
		h-7.348V59.261c-1.304,1-4.174,2.348-4.174,2.348s-0.913,0.522-2.957,1.739v-6.391c2.696-1.522,3.174-1.913,4.652-3.087
		C34.565,52.652,35.696,51.739,36.522,49.957z M92.87,35.696H7.13V92.87H92.87V35.696z M92.87,100H7.13C3.217,100,0,96.783,0,92.87
		v-75c0-3.957,3.217-7.174,7.13-7.174h7.043v3.696C14.174,25.217,25,25.13,25,25.13c10.696,0,10.609-10.826,10.609-10.826v-3.609
		h28.565l0.13,3.696C64.304,25,75,25.13,75,25.13c10.609,0,10.696-10.826,10.696-10.826v-3.609h7.174c3.913,0,7.13,3.217,7.13,7.174
		v75C100,96.783,96.783,100,92.87,100z"/>
</g>
<g id="gift">
</g>
<g id="open">
</g>
<g id="key">
</g>
<g id="archive-in">
</g>
<g id="archive-out">
</g>
<g id="attention_1_">
</g>
<g id="menu">
</g>
<g id="copy">
</g>
<g id="images">
</g>
<g id="レイヤー_70">
</g>
<g id="tweet">
</g>
<g id="follow-youtube">
</g>
<g id="re-enquete">
</g>
<g id="title">
</g>
<g id="photo">
</g>
</svg>
