<?xml version="1.0" encoding="utf-8"?>
<!-- Generator: Adobe Illustrator 19.1.0, SVG Export Plug-In . SVG Version: 6.00 Build 0)  -->
<svg version="1.1" xmlns="http://www.w3.org/2000/svg" xmlns:xlink="http://www.w3.org/1999/xlink" x="0px" y="0px"
	 viewBox="0 0 100 100" enable-background="new 0 0 100 100" xml:space="preserve">
<g id="gear">
</g>
<g id="info">
</g>
<g id="fan">
	<path d="M70.305,87.041H0.076c0,0-0.556-14.557,1.333-17.594c2.111-3.371,9.186-5.482,16.224-8.482
		c7.038-3,8.705-4.037,8.705-4.037L26.375,50c0,0-2.63-2.074-3.445-8.593c-1.63,0.482-3.371-2.519-3.445-4.111
		c-0.111-1.519,0.222-5.778,2.222-5.334c-0.407-3.185-0.704-6.075-0.556-7.593c0.519-5.556,5.852-11.408,14.038-11.408
		s13.52,5.852,14.038,11.408c0.148,1.519-0.148,4.408-0.556,7.593c2-0.444,2.334,3.815,2.222,5.334
		c-0.074,1.593-1.815,4.593-3.445,4.111C46.636,47.926,44.006,50,44.006,50l0.037,6.927c0,0,1.667,1.037,8.705,4.037
		c7.038,3,14.112,5.112,16.224,8.482C70.861,72.484,70.305,87.041,70.305,87.041z M98.9,72.965
		c-1.667-2.704-7.26-4.371-12.816-6.778c-5.519-2.408-6.852-3.26-6.852-3.26l-0.037-5.519c0,0,2.074-1.667,2.704-6.89
		c1.296,0.407,2.667-2,2.741-3.26c0.074-1.222-0.185-4.63-1.778-4.297c0.333-2.556,0.556-4.852,0.444-6.038
		c-0.407-4.445-4.593-9.149-11.075-9.149s-10.668,4.704-11.075,9.149c-0.111,1.185,0.111,3.482,0.444,6.038
		c-1.593-0.333-1.852,3.074-1.778,4.297c0.074,1.259,1.445,3.667,2.741,3.26c0.63,5.223,2.704,6.89,2.704,6.89l-0.111,2.074
		c0,0,0.741-0.074-1.963,1.185c3.371,1.445,8.705,3.556,10.186,8.297c1.074,3.408,0.63,18.076,0.63,18.076h25.928
		C99.938,87.041,100.382,75.373,98.9,72.965z"/>
</g>
<g id="mail-close1">
</g>
<g id="mail-close2">
</g>
<g id="mail-open">
</g>
<g id="campaign">
</g>
<g id="page">
</g>
<g id="preview">
</g>
<g id="conversion">
</g>
<g id="home">
</g>
<g id="instantwin">
</g>
<g id="button">
</g>
<g id="image">
</g>
<g id="text">
</g>
<g id="enquete">
</g>
<g id="write">
</g>
<g id="design">
</g>
<g id="branch-parallel">
</g>
<g id="branch-serial">
</g>
<g id="fangate">
</g>
<g id="youtube">
</g>
<g id="coupon">
</g>
<g id="radio">
</g>
<g id="logout">
</g>
<g id="check1">
</g>
<g id="check2">
</g>
<g id="download">
</g>
<g id="plus">
</g>
<g id="attract">
</g>
<g id="communication">
</g>
<g id="share">
</g>
<g id="arrow-right">
</g>
<g id="arrow-left-single">
</g>
<g id="arrow-bottom">
</g>
<g id="arrow-top">
</g>
<g id="follow-twitter">
</g>
<g id="arrow-follow">
</g>
<g id="caution">
</g>
<g id="minus">
</g>
<g id="delete">
</g>
<g id="edit">
</g>
<g id="fixed">
</g>
<g id="arrow-right-double">
</g>
<g id="arrow-left-double">
</g>
<g id="sort">
</g>
<g id="newwindow">
</g>
<g id="resize">
</g>
<g id="follow-facebook">
</g>
<g id="mail-option">
</g>
<g id="clock">
</g>
<g id="redirect">
</g>
<g id="open">
</g>
<g id="key">
</g>
<g id="archive-in">
</g>
<g id="archive-out">
</g>
<g id="attention_1_">
</g>
</svg>
