<?xml version="1.0" encoding="utf-8"?>
<!-- Generator: Adobe Illustrator 19.1.0, SVG Export Plug-In . SVG Version: 6.00 Build 0)  -->
<svg version="1.1" xmlns="http://www.w3.org/2000/svg" xmlns:xlink="http://www.w3.org/1999/xlink" x="0px" y="0px"
	 viewBox="0 0 100 100" enable-background="new 0 0 100 100" xml:space="preserve">
<g id="ln1">
</g>
<g id="gp1">
</g>
<g id="gp2">
</g>
<g id="yh1">
</g>
<g id="fb1">
	<g>
		<g>
			<path fill="#3B5997" d="M94.481,0H5.519C2.47,0,0,2.47,0,5.519v88.962C0,97.529,2.47,100,5.519,100h47.894V61.275H40.381V46.183
				h13.032v-11.13c0-12.916,7.888-19.949,19.411-19.949c5.519,0,10.263,0.411,11.646,0.595v13.498L76.478,29.2
				c-6.266,0-7.48,2.978-7.48,7.347v9.636h14.945l-1.946,15.092H68.998V100h25.483c3.048,0,5.519-2.471,5.519-5.519V5.519
				C100,2.47,97.529,0,94.481,0z"/>
		</g>
	</g>
</g>
<g id="ig1">
</g>
<g id="tw1">
</g>
<g id="tw2">
</g>
<g id="mx1">
</g>
</svg>
