<?xml version="1.0" encoding="utf-8"?>
<!-- Generator: Adobe Illustrator 19.2.1, SVG Export Plug-In . SVG Version: 6.00 Build 0)  -->
<svg version="1.1" xmlns="http://www.w3.org/2000/svg" xmlns:xlink="http://www.w3.org/1999/xlink" x="0px" y="0px"
	 viewBox="0 0 100 100" enable-background="new 0 0 100 100" xml:space="preserve">
<g id="gear">
</g>
<g id="info">
</g>
<g id="fan">
</g>
<g id="mail-close1">
</g>
<g id="mail-close2">
</g>
<g id="mail-open">
</g>
<g id="campaign">
</g>
<g id="page">
</g>
<g id="preview">
</g>
<g id="conversion">
</g>
<g id="home">
</g>
<g id="instantwin">
</g>
<g id="button">
</g>
<g id="image">
</g>
<g id="text">
</g>
<g id="enquete">
</g>
<g id="write">
</g>
<g id="design">
</g>
<g id="branch-parallel">
</g>
<g id="branch-serial">
</g>
<g id="favo">
</g>
<g id="youtube">
</g>
<g id="coupon">
</g>
<g id="radio">
</g>
<g id="logout">
</g>
<g id="check1">
</g>
<g id="check2">
</g>
<g id="download">
</g>
<g id="plus">
</g>
<g id="add">
</g>
<g id="attract">
</g>
<g id="communication">
</g>
<g id="share">
</g>
<g id="arrow-right">
</g>
<g id="arrow-left-single">
</g>
<g id="arrow-bottom">
</g>
<g id="arrow-top">
</g>
<g id="follow-twitter">
</g>
<g id="hashtag">
</g>
<g id="dashboard">
</g>
<g id="_x5F_staer">
</g>
<g id="retweet">
</g>
<g id="reply">
</g>
<g id="レイヤー_84">
</g>
<g id="arrow-follow">
</g>
<g id="caution">
</g>
<g id="question">
</g>
<g id="minus">
</g>
<g id="delete">
</g>
<g id="edit">
</g>
<g id="fixed">
</g>
<g id="arrow-right-double">
</g>
<g id="arrow-left-double">
</g>
<g id="sort">
</g>
<g id="newwindow">
</g>
<g id="resize">
</g>
<g id="follow-facebook">
</g>
<g id="mail-option">
</g>
<g id="clock">
</g>
<g id="redirect">
</g>
<g id="deadline">
</g>
<g id="gift">
</g>
<g id="open">
</g>
<g id="key">
</g>
<g id="archive-in">
</g>
<g id="archive-out">
</g>
<g id="attention_1_">
</g>
<g id="menu">
</g>
<g id="copy">
</g>
<g id="code">
</g>
<g id="images">
</g>
<g id="retweet_1_">
</g>
<g id="tweet">
</g>
<g id="follow-youtube">
</g>
<g id="re-enquete">
</g>
<g id="title">
</g>
<g id="photo">
</g>
<g id="ranking">
</g>
<g id="login">
</g>
<g id="contact">
</g>
<g id="win">
</g>
<g id="shipping">
</g>
<g id="trashbox">
</g>
<g id="present">
</g>
<g id="segment_1_">
</g>
<g id="up">
</g>
<g id="dwon">
</g>
<g id="all">
</g>
<g id="tag">
</g>
<g id="flag">
	<path d="M4.02,98.654L4.02,98.654c-2.706-0.54-4.463-3.172-3.923-5.878L17.559,5.268c0.54-2.706,3.172-4.463,5.878-3.923l0,0
		c2.706,0.54,4.463,3.172,3.923,5.878L9.898,94.732C9.358,97.438,6.727,99.194,4.02,98.654z M61.473,59.709
		c3.537,5.073-2.622,7.666-1.922,7.806C85.106,72.614,95.599,61.059,100,47.947c-9.241,4.183-21.069-4.59-24.676-8.404
		c-3.607-3.813,2.028-5.601-1.966-12.949S54.767,12.147,33.403,7.948l-9.906,49.643C32.629,51.042,57.936,54.636,61.473,59.709z"/>
</g>
<g id="rss">
</g>
</svg>
