<?xml version="1.0" encoding="utf-8"?>
<!-- Generator: Adobe Illustrator 18.1.1, SVG Export Plug-In . SVG Version: 6.00 Build 0)  -->
<svg version="1.1" xmlns="http://www.w3.org/2000/svg" xmlns:xlink="http://www.w3.org/1999/xlink" x="0px" y="0px"
	 viewBox="0 0 100 100" enable-background="new 0 0 100 100" xml:space="preserve">
<g id="gear">
</g>
<g id="info">
</g>
<g id="fan">
</g>
<g id="mail-close1">
</g>
<g id="mail-close2">
</g>
<g id="mail-open">
</g>
<g id="campaign">
</g>
<g id="page">
</g>
<g id="preview">
</g>
<g id="conversion">
</g>
<g id="home">
</g>
<g id="instantwin">
</g>
<g id="button">
</g>
<g id="image">
</g>
<g id="text">
</g>
<g id="enquete">
</g>
<g id="write">
</g>
<g id="design">
</g>
<g id="branch-parallel">
</g>
<g id="branch-serial">
</g>
<g id="favo">
</g>
<g id="youtube">
</g>
<g id="coupon">
</g>
<g id="radio">
</g>
<g id="logout">
</g>
<g id="check1">
</g>
<g id="check2">
</g>
<g id="download">
</g>
<g id="plus">
</g>
<g id="add">
</g>
<g id="attract">
</g>
<g id="communication">
</g>
<g id="share">
</g>
<g id="arrow-right">
</g>
<g id="arrow-left-single">
</g>
<g id="arrow-bottom">
</g>
<g id="arrow-top">
</g>
<g id="follow-twitter">
</g>
<g id="hashtag">
</g>
<g id="dashboard">
</g>
<g id="_x5F_staer">
</g>
<g id="retweet">
</g>
<g id="reply">
</g>
<g id="レイヤー_84">
</g>
<g id="arrow-follow">
</g>
<g id="caution">
</g>
<g id="question">
</g>
<g id="minus">
</g>
<g id="delete">
</g>
<g id="edit">
</g>
<g id="fixed">
</g>
<g id="arrow-right-double">
</g>
<g id="arrow-left-double">
</g>
<g id="sort">
</g>
<g id="newwindow">
</g>
<g id="resize">
</g>
<g id="follow-facebook">
</g>
<g id="mail-option">
</g>
<g id="clock">
</g>
<g id="redirect">
</g>
<g id="deadline">
</g>
<g id="gift">
</g>
<g id="open">
</g>
<g id="key">
</g>
<g id="archive-in">
</g>
<g id="archive-out">
</g>
<g id="attention_1_">
</g>
<g id="menu">
</g>
<g id="copy">
</g>
<g id="code">
</g>
<g id="images">
</g>
<g id="retweet_1_">
</g>
<g id="tweet">
</g>
<g id="follow-youtube">
</g>
<g id="re-enquete">
</g>
<g id="title">
</g>
<g id="photo">
</g>
<g id="ranking">
</g>
<g id="login">
</g>
<g id="contact">
</g>
<g id="win">
</g>
<g id="shipping">
</g>
<g id="trashbox">
</g>
<g id="present">
</g>
<g id="segment_1_">
</g>
<g id="up">
</g>
<g id="dwon">
</g>
<g id="all">
</g>
<g id="tag">
	<g id="レイヤー_96">
	</g>
</g>
<g id="flag">
</g>
<g id="rss">
</g>
<g id="comment">
</g>
<g id="cart">
</g>
<g id="contents">
</g>
<g id="commentPromotion">
</g>
<g id="arrowRight">
</g>
<g id="_x0A_roundQuestion">
</g>
<g id="floow">
	<g>
		<path d="M82.536,93.525H0.013c0,0-0.653-17.105,1.567-20.674c2.481-3.961,10.794-6.442,19.064-9.967
			c8.27-3.525,10.228-4.744,10.228-4.744L30.916,50c0,0-3.09-2.437-4.048-10.098c-1.915,0.566-3.961-2.96-4.048-4.831
			c-0.131-1.785,0.261-6.79,2.611-6.268c-0.479-3.743-0.827-7.138-0.653-8.923c0.609-6.529,6.877-13.406,16.496-13.406
			s15.886,6.877,16.496,13.406c0.174,1.785-0.174,5.179-0.653,8.923c2.35-0.522,2.742,4.483,2.611,6.268
			c-0.087,1.872-2.133,5.397-4.048,4.831C54.724,47.563,51.633,50,51.633,50l0.044,8.139c0,0,1.959,1.219,10.228,4.744
			c8.27,3.525,16.583,6.006,19.064,9.967C83.189,76.419,82.536,93.525,82.536,93.525z"/>
		<polygon fill-rule="evenodd" clip-rule="evenodd" points="99.924,27.482 85.268,27.482 85.268,42.138 79.405,42.138 
			79.405,27.482 64.749,27.482 64.749,21.62 79.405,21.62 79.405,6.964 85.268,6.964 85.268,21.62 99.924,21.62 		"/>
	</g>
</g>
</svg>
