<?xml version="1.0" encoding="utf-8"?>
<!-- Generator: Adobe Illustrator 19.1.0, SVG Export Plug-In . SVG Version: 6.00 Build 0)  -->
<svg version="1.1" xmlns="http://www.w3.org/2000/svg" xmlns:xlink="http://www.w3.org/1999/xlink" x="0px" y="0px"
	 viewBox="0 0 100 100" enable-background="new 0 0 100 100" xml:space="preserve">
<g id="gear">
</g>
<g id="info">
</g>
<g id="fan">
</g>
<g id="mail-close1">
</g>
<g id="mail-close2">
</g>
<g id="mail-open">
</g>
<g id="campaign">
</g>
<g id="page">
</g>
<g id="preview">
</g>
<g id="conversion">
</g>
<g id="home">
</g>
<g id="instantwin">
</g>
<g id="button">
</g>
<g id="image">
</g>
<g id="text">
</g>
<g id="enquete">
</g>
<g id="write">
</g>
<g id="design">
</g>
<g id="branch-parallel">
</g>
<g id="branch-serial">
</g>
<g id="fangate">
</g>
<g id="youtube">
</g>
<g id="coupon">
</g>
<g id="radio">
</g>
<g id="logout">
</g>
<g id="check1">
</g>
<g id="check2">
</g>
<g id="download">
</g>
<g id="plus">
</g>
<g id="add">
</g>
<g id="attract">
</g>
<g id="communication">
</g>
<g id="share">
</g>
<g id="arrow-right">
</g>
<g id="arrow-left-single">
</g>
<g id="arrow-bottom">
</g>
<g id="arrow-top">
</g>
<g id="follow-twitter">
	<path d="M63.672,24.271l0.039,1.852c0,19.07-14.657,41.056-41.411,41.056c-8.195,0-15.839-2.403-22.301-6.501
		c1.143,0.158,2.285,0.197,3.467,0.197c6.816,0,13.081-2.285,18.085-6.147C15.169,54.61,9.811,50.433,7.959,44.72
		c0.867,0.158,1.812,0.236,2.719,0.236c1.34,0,2.64-0.158,3.861-0.512c-6.659-1.3-11.702-7.132-11.702-14.145v-0.158
		c1.97,1.064,4.216,1.734,6.619,1.812c-3.901-2.6-6.501-7.013-6.501-12.017c0-2.64,0.749-5.122,1.97-7.25
		c7.21,8.708,17.928,14.46,29.984,15.051c-0.236-1.024-0.355-2.128-0.355-3.27c0-7.959,6.501-14.421,14.539-14.421
		c4.177,0,7.959,1.734,10.638,4.571c3.31-0.67,6.422-1.852,9.22-3.507c-1.064,3.349-3.388,6.186-6.383,7.959
		c2.916-0.355,5.753-1.103,8.353-2.246C68.952,19.701,66.509,22.222,63.672,24.271z M100,70.252H88.18v-11.82h-7.88v11.82h-11.82
		v7.88h11.82v11.82h7.88v-11.82H100V70.252z"/>
</g>
<g id="hashtag">
</g>
<g id="dashboard">
</g>
<g id="favo">
</g>
<g id="retweet">
</g>
<g id="reply">
</g>
<g id="arrow-follow">
</g>
<g id="caution">
</g>
<g id="minus">
</g>
<g id="delete">
</g>
<g id="edit">
</g>
<g id="fixed">
</g>
<g id="arrow-right-double">
</g>
<g id="arrow-left-double">
</g>
<g id="sort">
</g>
<g id="newwindow">
</g>
<g id="resize">
</g>
<g id="follow-facebook">
</g>
<g id="mail-option">
</g>
<g id="clock">
</g>
<g id="redirect">
</g>
<g id="deadline">
</g>
<g id="gift">
</g>
<g id="open">
</g>
<g id="key">
</g>
<g id="archive-in">
</g>
<g id="archive-out">
</g>
<g id="attention_1_">
</g>
<g id="menu">
</g>
<g id="copy">
</g>
<g id="images">
</g>
<g id="レイヤー_70">
</g>
<g id="tweet">
</g>
<g id="follow-youtube">
</g>
<g id="re-enquete">
</g>
<g id="title">
</g>
<g id="photo">
</g>
</svg>
