<?xml version="1.0" encoding="utf-8"?>
<!-- Generator: Adobe Illustrator 19.1.0, SVG Export Plug-In . SVG Version: 6.00 Build 0)  -->
<svg version="1.1" xmlns="http://www.w3.org/2000/svg" xmlns:xlink="http://www.w3.org/1999/xlink" x="0px" y="0px"
	 viewBox="0 0 100 100" enable-background="new 0 0 100 100" xml:space="preserve">
<g id="gear">
	<path fill-rule="evenodd" clip-rule="evenodd" d="M50.15,60c-5.6,0-10.1-4.5-10.1-10.1c0-5.55,4.5-10.05,10.1-10.05
		c5.55,0,10.05,4.5,10.05,10.05C60.2,55.5,55.7,60,50.15,60z M49.9,32C40,32,32,40,32,49.9s8,18.15,17.9,18.15
		S68.15,59.8,68.15,49.9S59.8,32,49.9,32z M86.6,60.1c-0.85,3.1-2.1,6-3.7,8.75l0.2-0.2c0,0,8.4,10.45,3.35,15.45L84,86.6
		c-3.75,3.75-13.15-2.15-15.3-3.6c-2.85,1.6-5.9,2.85-9.15,3.65l0.65,0.05c0,0-1.75,13.3-8.9,13.3h-2.45c-5.45,0-8.45-11.4-9-13.55
		c-3.2-0.9-6.25-2.25-9.05-3.9l0.55,0.55c0,0-10.55,8.3-15.6,3.25L13.5,84.5c-3.95-4,2.85-14.75,3.65-16.05
		c-1.45-2.6-2.65-5.35-3.45-8.3c-1.85-0.4-13.7-3.45-13.7-9V48.7c0-6.4,11.35-8.5,13.65-8.85c0.8-2.95,2-5.75,3.45-8.35
		c-0.7-1-7.85-11.95-3.8-16l2.35-1.95C20.1,9.1,29.25,15.45,31.3,17c2.7-1.55,5.55-2.8,8.6-3.65C40.6,10.65,43.6,0,48.85,0h2.45
		c6.15,0,8.3,10.3,8.8,13.25c3.1,0.85,6,2.1,8.7,3.65c2.25-1.45,11.8-7.35,15.55-3.6l2.25,2.35c4.4,4.4-1.85,13.35-3.5,15.6
		c1.5,2.7,2.75,5.6,3.6,8.65v-0.1c0,0,13.3,1.75,13.3,8.9v2.45C100,56.4,89.2,59.45,86.6,60.1z"/>
</g>
<g id="info">
</g>
<g id="fan">
</g>
<g id="mail-close1">
</g>
<g id="mail-close2">
</g>
<g id="mail-open">
</g>
<g id="campaign">
</g>
<g id="page">
</g>
<g id="preview">
</g>
<g id="conversion">
</g>
<g id="home">
</g>
<g id="instantwin">
</g>
<g id="button">
</g>
<g id="image">
</g>
<g id="text">
</g>
<g id="enquete">
</g>
<g id="write">
</g>
<g id="design">
</g>
<g id="branch-parallel">
</g>
<g id="branch-serial">
</g>
<g id="fangate">
</g>
<g id="youtube">
</g>
<g id="coupon">
</g>
<g id="radio">
</g>
<g id="logout">
</g>
<g id="check1">
</g>
<g id="check2">
</g>
<g id="download">
</g>
<g id="plus">
</g>
<g id="attract">
</g>
<g id="communication">
</g>
<g id="share">
</g>
<g id="arrow-right">
</g>
<g id="arrow-left-single">
</g>
<g id="arrow-bottom">
</g>
<g id="arrow-top">
</g>
<g id="follow-twitter">
</g>
<g id="arrow-follow">
</g>
<g id="caution">
</g>
<g id="minus">
</g>
<g id="delete">
</g>
<g id="edit">
</g>
<g id="fixed">
</g>
<g id="arrow-right-double">
</g>
<g id="arrow-left-double">
</g>
<g id="sort">
</g>
<g id="newwindow">
</g>
<g id="resize">
</g>
<g id="follow-facebook">
</g>
<g id="mail-option">
</g>
<g id="clock">
</g>
<g id="redirect">
</g>
<g id="open">
</g>
<g id="key">
</g>
<g id="archive-in">
</g>
<g id="archive-out">
</g>
<g id="attention_1_">
</g>
</svg>
