<?xml version="1.0" encoding="utf-8"?>
<!-- Generator: Adobe Illustrator 19.1.0, SVG Export Plug-In . SVG Version: 6.00 Build 0)  -->
<svg version="1.1" xmlns="http://www.w3.org/2000/svg" xmlns:xlink="http://www.w3.org/1999/xlink" x="0px" y="0px"
	 viewBox="0 0 100 100" enable-background="new 0 0 100 100" xml:space="preserve">
<g id="ln1">
</g>
<g id="ln2">
</g>
<g id="gp1">
	<path fill="#DC4E41" d="M95,0H5C2.239,0,0,2.238,0,5v90c0,2.761,2.239,5,5,5h90c2.761,0,5-2.239,5-5V5C100,2.238,97.761,0,95,0z
		 M40,67.5c-9.675,0-17.5-7.825-17.5-17.5S30.325,32.5,40,32.5c4.725,0,8.675,1.725,11.725,4.575l-4.75,4.575
		c-1.3-1.25-3.575-2.7-6.975-2.7c-5.975,0-10.85,4.95-10.85,11.05S34.025,61.05,40,61.05c6.925,0,9.525-4.975,9.925-7.55H40v-6
		h16.525c0.15,0.875,0.275,1.75,0.275,2.9C56.8,60.4,50.1,67.5,40,67.5z M77.5,52.5h-5v5h-5v-5h-5v-5h5v-5h5v5h5V52.5z"/>
</g>
<g id="gp2">
</g>
<g id="yh1">
</g>
<g id="fb1">
</g>
<g id="ig1">
</g>
<g id="tw1">
</g>
<g id="tw2">
</g>
<g id="mx1">
</g>
</svg>
