<?xml version="1.0" encoding="utf-8"?>
<!-- Generator: Adobe Illustrator 19.1.0, SVG Export Plug-In . SVG Version: 6.00 Build 0)  -->
<svg version="1.1" xmlns="http://www.w3.org/2000/svg" xmlns:xlink="http://www.w3.org/1999/xlink" x="0px" y="0px"
	 viewBox="0 0 100 100" enable-background="new 0 0 100 100" xml:space="preserve">
<g id="ln1">
</g>
<g id="ln2">
</g>
<g id="gp1">
</g>
<g id="gp2">
	<path fill="#DC4E41" d="M31.818,45.455v10.909h18.045c-0.727,4.682-5.455,13.727-18.045,13.727c-10.864,0-19.727-9-19.727-20.091
		s8.864-20.091,19.727-20.091c6.182,0,10.318,2.636,12.682,4.909l8.636-8.318c-5.545-5.182-12.727-8.318-21.318-8.318
		C14.227,18.182,0,32.409,0,50s14.227,31.818,31.818,31.818c18.364,0,30.545-12.909,30.545-31.091c0-2.091-0.227-3.682-0.5-5.273
		H31.818L31.818,45.455z M100,45.455h-9.091v-9.091h-9.091v9.091h-9.091v9.091h9.091v9.091h9.091v-9.091H100"/>
</g>
<g id="yh1">
</g>
<g id="fb1">
</g>
<g id="ig1">
</g>
<g id="tw1">
</g>
<g id="tw2">
</g>
<g id="mx1">
</g>
</svg>
