<?xml version="1.0" encoding="utf-8"?>
<!-- Generator: Adobe Illustrator 18.1.1, SVG Export Plug-In . SVG Version: 6.00 Build 0)  -->
<svg version="1.1" xmlns="http://www.w3.org/2000/svg" xmlns:xlink="http://www.w3.org/1999/xlink" x="0px" y="0px"
	 viewBox="0 0 100 100" enable-background="new 0 0 100 100" xml:space="preserve">
<g id="ln1">
</g>
<g id="ln2">
</g>
<g id="gp1">
</g>
<g id="gp2">
</g>
<g id="yh1">
</g>
<g id="fb1">
</g>
<g id="ig1">
	<g>
		<path d="M50,9.009c13.351,0,14.932,0.051,20.204,0.291c4.875,0.222,7.522,1.037,9.284,1.722c2.334,0.907,3.999,1.991,5.749,3.74
			c1.75,1.75,2.833,3.415,3.74,5.749c0.685,1.762,1.499,4.409,1.722,9.284c0.241,5.272,0.291,6.854,0.291,20.204
			S90.94,64.932,90.7,70.204c-0.222,4.875-1.037,7.522-1.722,9.284c-0.907,2.334-1.991,3.999-3.74,5.749
			c-1.75,1.75-3.415,2.833-5.749,3.74c-1.762,0.685-4.409,1.499-9.284,1.722C64.933,90.94,63.352,90.991,50,90.991
			S35.067,90.94,29.796,90.7c-4.875-0.222-7.522-1.037-9.284-1.722c-2.334-0.907-3.999-1.991-5.749-3.74
			c-1.75-1.75-2.833-3.415-3.74-5.749c-0.685-1.762-1.499-4.409-1.722-9.284C9.06,64.932,9.009,63.351,9.009,50
			S9.06,35.068,9.3,29.796c0.222-4.875,1.037-7.522,1.722-9.284c0.907-2.334,1.991-3.999,3.74-5.749
			c1.75-1.75,3.415-2.833,5.749-3.74c1.762-0.685,4.409-1.499,9.284-1.722C35.068,9.06,36.649,9.009,50,9.009 M50,0
			C36.421,0,34.718,0.058,29.385,0.301c-5.322,0.243-8.957,1.088-12.137,2.324c-3.288,1.278-6.076,2.987-8.856,5.767
			c-2.78,2.78-4.489,5.568-5.767,8.856c-1.236,3.181-2.081,6.815-2.324,12.137C0.058,34.718,0,36.421,0,50
			c0,13.579,0.058,15.282,0.301,20.615c0.243,5.322,1.088,8.957,2.324,12.137c1.278,3.288,2.987,6.076,5.767,8.856
			c2.78,2.78,5.568,4.489,8.856,5.767c3.181,1.236,6.815,2.081,12.137,2.324C34.718,99.943,36.421,100,50,100
			s15.282-0.057,20.615-0.301c5.322-0.243,8.957-1.088,12.137-2.324c3.288-1.278,6.076-2.987,8.856-5.767
			c2.78-2.78,4.489-5.568,5.767-8.856c1.236-3.181,2.081-6.815,2.324-12.137C99.942,65.282,100,63.579,100,50
			s-0.058-15.282-0.301-20.615c-0.243-5.322-1.088-8.957-2.324-12.137c-1.278-3.288-2.987-6.076-5.767-8.856
			c-2.78-2.78-5.568-4.489-8.856-5.767c-3.181-1.236-6.815-2.081-12.137-2.324C65.282,0.058,63.579,0,50,0L50,0z"/>
		<path d="M50,24.324C35.82,24.324,24.324,35.82,24.324,50c0,14.18,11.495,25.676,25.676,25.676S75.676,64.18,75.676,50
			C75.676,35.82,64.18,24.324,50,24.324z M50,66.667c-9.205,0-16.667-7.462-16.667-16.667c0-9.205,7.462-16.667,16.667-16.667
			c9.205,0,16.667,7.462,16.667,16.667C66.667,59.205,59.205,66.667,50,66.667z"/>
		<circle cx="76.69" cy="23.31" r="6"/>
	</g>
</g>
<g id="tw1">
</g>
<g id="tw2">
</g>
<g id="mx1">
</g>
</svg>
