<?xml version="1.0" encoding="utf-8"?>
<!-- Generator: Adobe Illustrator 18.1.1, SVG Export Plug-In . SVG Version: 6.00 Build 0)  -->
<svg version="1.1" id="レイヤー_1" xmlns="http://www.w3.org/2000/svg" xmlns:xlink="http://www.w3.org/1999/xlink" x="0px"
	 y="0px" viewBox="0 0 100 100" enable-background="new 0 0 100 100" xml:space="preserve">
<path fill="#0077B5" d="M96.395,78.185c0.762-0.094,1.161-0.513,1.161-1.218c0-0.862-0.521-1.279-1.592-1.279h-1.72v4.523h0.647
	v-1.968h0.801l0.018,0.022l1.239,1.946h0.694l-1.333-2.014L96.395,78.185z M95.645,77.731h-0.754v-1.528h0.956
	c0.494,0,1.06,0.08,1.06,0.726C96.906,77.672,96.336,77.731,95.645,77.731z M95.717,73.677c-2.401,0-4.283,1.88-4.283,4.278
	c0,2.401,1.882,4.278,4.283,4.278c2.401,0,4.283-1.877,4.283-4.278C100,75.557,98.118,73.677,95.717,73.677z M95.717,81.673
	c-2.046,0-3.653-1.616-3.653-3.719c0-2.098,1.607-3.717,3.653-3.717c2.051,0,3.656,1.619,3.656,3.717
	C99.373,80.057,97.768,81.673,95.717,81.673z M81.86,5.799H6.524C2.926,5.799,0,8.654,0,12.174v75.648
	c0,3.52,2.926,6.379,6.524,6.379H81.86c3.607,0,6.539-2.858,6.539-6.379V12.174C88.398,8.654,85.466,5.799,81.86,5.799z
	 M26.217,81.127H13.101V38.94h13.116V81.127z M19.659,33.176c-4.201,0-7.599-3.407-7.599-7.602c0-4.199,3.397-7.606,7.599-7.606
	c4.192,0,7.599,3.407,7.599,7.606C27.258,29.769,23.851,33.176,19.659,33.176z M75.33,81.127H62.224V60.61
	c0-4.894-0.087-11.186-6.814-11.186c-6.823,0-7.864,5.333-7.864,10.834v20.868H34.441V38.94h12.575v5.769h0.181
	c1.751-3.318,6.027-6.814,12.406-6.814c13.277,0,15.728,8.734,15.728,20.094V81.127z"/>
<g>
</g>
<g>
</g>
<g>
</g>
<g>
</g>
<g>
</g>
<g>
</g>
<g>
</g>
<g>
</g>
<g>
</g>
<g>
</g>
<g>
</g>
<g>
</g>
<g>
</g>
<g>
</g>
<g>
</g>
</svg>
