<?xml version="1.0" encoding="utf-8"?>
<!-- Generator: Adobe Illustrator 19.1.0, SVG Export Plug-In . SVG Version: 6.00 Build 0)  -->
<svg version="1.1" xmlns="http://www.w3.org/2000/svg" xmlns:xlink="http://www.w3.org/1999/xlink" x="0px" y="0px"
	 viewBox="0 0 100 100" enable-background="new 0 0 100 100" xml:space="preserve">
<g id="gear">
</g>
<g id="info">
	<path fill-rule="evenodd" clip-rule="evenodd" d="M0,50c0,27.6,22.4,50,50,50s50-22.4,50-50S77.6,0,50,0S0,22.4,0,50z M41.1,44.95
		c-1.9,0-3.9,0.15-6.1,0.35v-4.4c8.85-0.85,16.5-2.3,22.95-4.45l3,1.35C60.4,41.65,60.1,45,59.9,48.05
		c-0.3,4.55-0.45,11.65-0.45,21.3c0,4.05,0.15,6.6,0.55,7.7c0.25,0.8,0.8,1.35,1.65,1.7c0.75,0.4,3.6,1,8.35,1.85V85H54.55H35v-4.4
		l1.7-0.3c3.9-0.7,6.2-1.25,6.95-1.7c0.75-0.4,1.2-1.3,1.35-2.55c0.3-3.1,0.45-9.6,0.45-19.4c0-5.65-0.15-8.85-0.45-9.85
		C44.4,45.55,43.1,44.95,41.1,44.95z M42.9,12.6c1.85-1.7,4.3-2.6,7.1-2.6c2.75,0,5.1,0.9,7.05,2.6C59,14.35,60,16.4,60,18.8
		c0,2.5-1,4.55-2.95,6.3c-1.95,1.7-4.3,2.55-7.05,2.55c-2.8,0-5.15-0.85-7.1-2.55c-1.95-1.75-2.9-3.8-2.9-6.3
		C40,16.4,40.95,14.35,42.9,12.6z"/>
</g>
<g id="fan">
</g>
<g id="mail-close1">
</g>
<g id="mail-close2">
</g>
<g id="mail-open">
</g>
<g id="campaign">
</g>
<g id="page">
</g>
<g id="preview">
</g>
<g id="conversion">
</g>
<g id="home">
</g>
<g id="instantwin">
</g>
<g id="button">
</g>
<g id="image">
</g>
<g id="text">
</g>
<g id="enquete">
</g>
<g id="write">
</g>
<g id="design">
</g>
<g id="branch-parallel">
</g>
<g id="branch-serial">
</g>
<g id="fangate">
</g>
<g id="youtube">
</g>
<g id="coupon">
</g>
<g id="radio">
</g>
<g id="logout">
</g>
<g id="check1">
</g>
<g id="check2">
</g>
<g id="download">
</g>
<g id="plus">
</g>
<g id="attract">
</g>
<g id="communication">
</g>
<g id="share">
</g>
<g id="arrow-right">
</g>
<g id="arrow-left-single">
</g>
<g id="arrow-bottom">
</g>
<g id="arrow-top">
</g>
<g id="follow-twitter">
</g>
<g id="arrow-follow">
</g>
<g id="caution">
</g>
<g id="minus">
</g>
<g id="delete">
</g>
<g id="edit">
</g>
<g id="fixed">
</g>
<g id="arrow-right-double">
</g>
<g id="arrow-left-double">
</g>
<g id="sort">
</g>
<g id="newwindow">
</g>
<g id="resize">
</g>
<g id="follow-facebook">
</g>
<g id="mail-option">
</g>
<g id="clock">
</g>
<g id="redirect">
</g>
<g id="open">
</g>
<g id="key">
</g>
<g id="archive-in">
</g>
<g id="archive-out">
</g>
<g id="attention_1_">
</g>
</svg>
