<?xml version="1.0" encoding="utf-8"?>
<!-- Generator: Adobe Illustrator 19.1.0, SVG Export Plug-In . SVG Version: 6.00 Build 0)  -->
<svg version="1.1" xmlns="http://www.w3.org/2000/svg" xmlns:xlink="http://www.w3.org/1999/xlink" x="0px" y="0px"
	 viewBox="0 0 100 100" enable-background="new 0 0 100 100" xml:space="preserve">
<g id="gear">
</g>
<g id="info">
</g>
<g id="fan">
</g>
<g id="mail-close1">
</g>
<g id="mail-close2">
</g>
<g id="mail-open">
</g>
<g id="campaign">
</g>
<g id="page">
</g>
<g id="preview">
</g>
<g id="conversion">
</g>
<g id="home">
</g>
<g id="instantwin">
</g>
<g id="button">
</g>
<g id="image">
</g>
<g id="text">
</g>
<g id="enquete">
</g>
<g id="write">
</g>
<g id="design">
</g>
<g id="branch-parallel">
</g>
<g id="branch-serial">
</g>
<g id="fangate">
</g>
<g id="youtube">
</g>
<g id="coupon">
</g>
<g id="radio">
</g>
<g id="logout">
</g>
<g id="check1">
</g>
<g id="check2">
</g>
<g id="download">
</g>
<g id="plus">
</g>
<g id="attract">
</g>
<g id="communication">
</g>
<g id="share">
</g>
<g id="arrow-right">
</g>
<g id="arrow-left-single">
</g>
<g id="arrow-bottom">
</g>
<g id="arrow-top">
</g>
<g id="follow-twitter">
</g>
<g id="arrow-follow">
</g>
<g id="caution">
</g>
<g id="minus">
</g>
<g id="delete">
</g>
<g id="edit">
</g>
<g id="fixed">
</g>
<g id="arrow-right-double">
</g>
<g id="arrow-left-double">
</g>
<g id="sort">
</g>
<g id="newwindow">
</g>
<g id="resize">
</g>
<g id="follow-facebook">
</g>
<g id="mail-option">
</g>
<g id="clock">
</g>
<g id="redirect">
</g>
<g id="open">
</g>
<g id="key">
	<path fill-rule="evenodd" clip-rule="evenodd" fill="#040000" d="M89.796,35.291L68.657,13.939c-1.428-1.428-3.785-1.5-5.285-0.143
		c-1.5,1.357-1.428,3.571,0,4.999l21.138,21.567c1.571,1.571,3.856,1.785,5.356,0.286C91.367,39.219,91.295,36.791,89.796,35.291z
		 M16.24,82.995c-0.857,0.786-0.928,2.071-0.214,2.928c0.714,0.786,1.928,0.857,2.785,0.071l37.063-35.278
		c0.786-0.714,0.786-1.928,0.071-2.642c-0.714-0.786-1.857-0.786-2.642-0.071L16.24,82.995z M83.297,61.071
		c-7.784,7.784-15.854-1.214-15.854-1.214l-5.356-4.927L21.596,93.778L1.458,96.42c-4.142-4.927,1.857-17.353,1.857-17.353
		l12.354-6.141l3.428-8.641l5.499,0.143l2.857-2.714l0.428-5.356l5.07,0.428l2.642-7.498l11.355-10.426l-5.07-5.427
		c-7.07-7.498,0.786-14.854,0.786-14.854L55.875,6.369c4.356-3.856,11.069-3.713,15.211,0.428l25.566,25.494
		c4.356,4.356,4.499,11.355,0.214,15.639L83.297,61.071z"/>
</g>
<g id="archive-in">
</g>
<g id="archive-out">
</g>
<g id="attention_1_">
</g>
</svg>
