<?xml version="1.0" encoding="utf-8"?>
<!-- Generator: Adobe Illustrator 18.1.1, SVG Export Plug-In . SVG Version: 6.00 Build 0)  -->
<svg version="1.1" xmlns="http://www.w3.org/2000/svg" xmlns:xlink="http://www.w3.org/1999/xlink" x="0px" y="0px"
	 viewBox="0 0 100 100" enable-background="new 0 0 100 100" xml:space="preserve">
<g id="link">
	<g>
		<path d="M63.819,41.92L63.819,41.92c-0.329-0.329-0.669-0.64-1.014-0.942c-2.242-1.964-4.806-3.364-7.508-4.196
			c-0.685-0.211-1.38-0.379-2.079-0.517l-6.127,6.127c-0.302,0.302-2.428,3.388-0.343,2.938c3.266-0.705,6.775,0.02,9.526,2.179
			c0.36,0.283,0.711,0.582,1.043,0.913c4.482,4.482,4.482,11.774,0,16.256L34.557,87.437c-4.482,4.482-11.774,4.482-16.256,0
			c-4.482-4.482-4.482-11.774,0-16.256l12.074-12.074c-1.138-0.971-2.406-2.684-3.041-3.889c-0.93-1.767-0.991-2.664-1.658-4.417
			L11.799,64.679c-8.08,8.08-8.08,21.181,0,29.261l0,0c8.08,8.08,21.181,8.08,29.261,0l22.759-22.759
			C71.899,63.101,71.899,50,63.819,41.92z"/>
		<path d="M36.181,58.08L36.181,58.08c0.329,0.329,0.669,0.64,1.014,0.942c2.242,1.964,4.806,3.364,7.508,4.196
			c0.685,0.211,1.38,0.379,2.079,0.517l6.127-6.127c0.302-0.302,2.428-3.388,0.343-2.938c-3.266,0.705-6.775-0.02-9.526-2.179
			c-0.36-0.283-0.711-0.582-1.043-0.913c-4.482-4.482-4.482-11.774,0-16.256l22.759-22.759c4.482-4.482,11.774-4.482,16.256,0
			c4.482,4.482,4.482,11.774,0,16.256L69.625,40.893c1.138,0.971,2.406,2.684,3.041,3.889c0.93,1.767,0.991,2.664,1.658,4.417
			l13.878-13.878c8.08-8.08,8.08-21.181,0-29.261l0,0c-8.08-8.08-21.181-8.08-29.261,0L36.181,28.819
			C28.101,36.899,28.101,50,36.181,58.08z"/>
	</g>
</g>
<g id="RSS">
</g>
</svg>
