<?xml version="1.0" encoding="utf-8"?>
<!-- Generator: Adobe Illustrator 19.1.0, SVG Export Plug-In . SVG Version: 6.00 Build 0)  -->
<svg version="1.1" xmlns="http://www.w3.org/2000/svg" xmlns:xlink="http://www.w3.org/1999/xlink" x="0px" y="0px"
	 viewBox="0 0 100 100" enable-background="new 0 0 100 100" xml:space="preserve">
<g id="ln1">
</g>
<g id="レイヤー_10">
	<path fill="#00C300" d="M62,31.035c-1.444,0-3,1.176-3,2.622V45.95l-9.997-13.866c-0.491-0.658-1.182-1.048-2-1.048
		c-0.282,0-0.752,0.044-1.022,0.135C44.91,31.528,44,32.527,44,33.657v19.869c0,1.447,1.555,2.623,3,2.623c1.447,0,3-1.176,3-2.623
		V41.234l10.039,13.865c0.494,0.658,1.207,1.049,2.024,1.049c0.282,0,0.718-0.046,0.988-0.136C64.126,55.657,65,54.658,65,53.526
		V33.657C65,32.211,63.447,31.035,62,31.035z M37,31.035c-1.445,0-3,1.176-3,2.622v19.869c0,1.447,1.555,2.623,3,2.623
		c1.444,0,3-1.176,3-2.623V33.657C40,32.211,38.445,31.035,37,31.035z M30.427,50H22V33.657c0-1.446-0.554-2.622-2-2.622
		c-1.445,0-2,1.176-2,2.622v19.869C18,54.973,19.048,56,20.493,56h9.934c1.447,0,2.622-1.554,2.622-3.001
		C33.049,51.554,31.874,50,30.427,50z M80.693,36c1.447,0,2.622-1.054,2.622-2.5c0-1.446-1.175-2.5-2.622-2.5h-9.935
		C69.312,31,67,32.211,67,33.657v9.935c0,0.002,0,0.002,0,0.006v9.927C67,54.973,69.315,56,70.758,56h9.935
		c1.445,0,2.622-1.554,2.622-3.001c0-1.446-1.177-2.999-2.622-2.999H73v-4h7.693c1.447,0,2.622-1.554,2.622-2.999
		c0-1.447-1.175-3.001-2.622-3.001H73v-4H80.693z M89.28,68h0.002C78.793,80,55.337,94.684,50,96.932
		c-5.336,2.248-4.548-1.481-4.331-2.745c0.129-0.753,0.713-4.306,0.713-4.306c0.169-1.277,0.343-3.269-0.161-4.532
		c-0.561-1.391-2.777-2.121-4.404-2.472C17.788,79.699,0,62.897,0,42.84C0,20.467,22.431,2.264,50,2.264c27.569,0,50,18.3,50,40.674
		C100,51.892,96.528,60,89.28,68z"/>
</g>
<g id="gp1">
</g>
<g id="gp2">
</g>
<g id="yh1">
</g>
<g id="fb1">
</g>
<g id="ig1">
</g>
<g id="tw1">
</g>
<g id="tw2">
</g>
<g id="mx1">
</g>
</svg>
