<?xml version="1.0" encoding="utf-8"?>
<!-- Generator: Adobe Illustrator 19.1.0, SVG Export Plug-In . SVG Version: 6.00 Build 0)  -->
<svg version="1.1" xmlns="http://www.w3.org/2000/svg" xmlns:xlink="http://www.w3.org/1999/xlink" x="0px" y="0px"
	 viewBox="0 0 100 100" enable-background="new 0 0 100 100" xml:space="preserve">
<g id="gear">
</g>
<g id="info">
</g>
<g id="fan">
</g>
<g id="mail-close1">
</g>
<g id="mail-close2">
</g>
<g id="mail-open">
</g>
<g id="campaign">
</g>
<g id="page">
</g>
<g id="preview">
</g>
<g id="conversion">
</g>
<g id="home">
</g>
<g id="instantwin">
</g>
<g id="button">
</g>
<g id="image">
</g>
<g id="text">
</g>
<g id="enquete">
</g>
<g id="write">
</g>
<g id="design">
</g>
<g id="branch-parallel">
</g>
<g id="branch-serial">
</g>
<g id="fangate">
</g>
<g id="youtube">
</g>
<g id="coupon">
</g>
<g id="radio">
</g>
<g id="logout">
</g>
<g id="check1">
</g>
<g id="check2">
</g>
<g id="download">
</g>
<g id="plus">
</g>
<g id="attract">
</g>
<g id="communication">
</g>
<g id="share">
</g>
<g id="arrow-right">
</g>
<g id="arrow-left-single">
</g>
<g id="arrow-bottom">
</g>
<g id="arrow-top">
</g>
<g id="follow-twitter">
</g>
<g id="arrow-follow">
</g>
<g id="caution">
</g>
<g id="minus">
</g>
<g id="delete">
</g>
<g id="edit">
</g>
<g id="fixed">
</g>
<g id="arrow-right-double">
</g>
<g id="arrow-left-double">
</g>
<g id="sort">
</g>
<g id="newwindow">
</g>
<g id="resize">
</g>
<g id="follow-facebook">
</g>
<g id="mail-option">
	<path fill-rule="evenodd" clip-rule="evenodd" d="M41.48,34.88H27.96c-1.6,0-2.88-1.28-2.88-2.88v-3.88V14.6
		c0-1.6,1.28-2.88,2.88-2.88c1.6,0,2.92,1.28,2.92,2.88v14.44l10.6,0.04c1.6,0,2.88,1.32,2.88,2.92
		C44.36,33.6,43.08,34.88,41.48,34.88z M45.592,53.788c-0.931,0.752-1.909,1.447-2.932,2.076L70,73.8l30-20.28V96H40V57.308
		C36.364,59.032,32.297,60,28,60C12.52,60,0,47.48,0,32C0,16.52,12.52,4,28,4s28,12.52,28,28c0,5.954-1.858,11.466-5.018,16H100
		v1.52L70,69.8L45.592,53.788z M40.637,50.538L40,50.12V48h3.714c4.128-4.07,6.686-9.732,6.686-16c0-12.4-10-22.36-22.4-22.36
		S5.56,19.6,5.56,32C5.56,44.4,15.6,54.44,28,54.44C32.694,54.44,37.043,52.999,40.637,50.538z"/>
</g>
<g id="clock">
</g>
<g id="redirect">
</g>
<g id="open">
</g>
<g id="key">
</g>
<g id="archive-in">
</g>
<g id="archive-out">
</g>
<g id="attention_1_">
</g>
</svg>
