<?xml version="1.0" encoding="utf-8"?>
<!-- Generator: Adobe Illustrator 19.1.0, SVG Export Plug-In . SVG Version: 6.00 Build 0)  -->
<svg version="1.1" xmlns="http://www.w3.org/2000/svg" xmlns:xlink="http://www.w3.org/1999/xlink" x="0px" y="0px"
	 viewBox="0 0 100 100" enable-background="new 0 0 100 100" xml:space="preserve">
<g id="gear">
</g>
<g id="info">
</g>
<g id="fan">
</g>
<g id="mail-close1">
</g>
<g id="mail-close2">
</g>
<g id="mail-open">
</g>
<g id="campaign">
</g>
<g id="page">
</g>
<g id="preview">
</g>
<g id="conversion">
</g>
<g id="home">
</g>
<g id="instantwin">
</g>
<g id="button">
</g>
<g id="image">
</g>
<g id="text">
</g>
<g id="enquete">
</g>
<g id="write">
</g>
<g id="design">
</g>
<g id="branch-parallel">
</g>
<g id="branch-serial">
</g>
<g id="favo">
</g>
<g id="youtube">
</g>
<g id="coupon">
</g>
<g id="radio">
</g>
<g id="logout">
</g>
<g id="check1">
</g>
<g id="check2">
</g>
<g id="download">
</g>
<g id="plus">
</g>
<g id="add">
</g>
<g id="attract">
</g>
<g id="communication">
</g>
<g id="share">
</g>
<g id="arrow-right">
</g>
<g id="arrow-left-single">
</g>
<g id="arrow-bottom">
</g>
<g id="arrow-top">
</g>
<g id="follow-twitter">
</g>
<g id="hashtag">
</g>
<g id="dashboard">
</g>
<g id="_x5F_staer">
</g>
<g id="retweet">
</g>
<g id="reply">
</g>
<g id="レイヤー_84">
</g>
<g id="arrow-follow">
</g>
<g id="caution">
</g>
<g id="question">
</g>
<g id="minus">
</g>
<g id="delete">
</g>
<g id="edit">
</g>
<g id="fixed">
</g>
<g id="arrow-right-double">
</g>
<g id="arrow-left-double">
</g>
<g id="sort">
</g>
<g id="newwindow">
</g>
<g id="resize">
</g>
<g id="follow-facebook">
</g>
<g id="mail-option">
</g>
<g id="clock">
</g>
<g id="redirect">
</g>
<g id="deadline">
</g>
<g id="gift">
</g>
<g id="open">
</g>
<g id="key">
</g>
<g id="archive-in">
</g>
<g id="archive-out">
</g>
<g id="attention_1_">
</g>
<g id="menu">
</g>
<g id="copy">
</g>
<g id="code">
</g>
<g id="images">
</g>
<g id="retweet_1_">
</g>
<g id="tweet">
</g>
<g id="follow-youtube">
</g>
<g id="re-enquete">
</g>
<g id="title">
</g>
<g id="photo">
</g>
<g id="ranking">
</g>
<g id="login">
</g>
<g id="contact">
</g>
<g id="win">
</g>
<g id="shipping">
</g>
<g id="create">
</g>
<g id="fixing">
</g>
<g id="recommend">
</g>
<g id="past">
</g>
<g id="trashbox">
</g>
<g id="present">
	<g id="present2">
		<path fill="#040000" d="M76.49,27.243c0.139-0.048,0.282-0.084,0.414-0.15c3.423-1.71,5.974-4.648,7.183-8.273
			s0.931-7.503-0.784-10.919C80.858,3.027,75.943,0,70.478,0c-2.272,0-4.459,0.526-6.497,1.561
			c-0.434,0.221-0.804,0.554-1.096,0.943L50,19.667L37.115,2.504c-0.292-0.39-0.662-0.722-1.096-0.943
			C33.981,0.526,31.794,0,29.522,0c-5.465,0-10.38,3.027-12.824,7.901c-1.714,3.416-1.992,7.294-0.784,10.919
			s3.759,6.563,7.183,8.273c0.132,0.066,0.275,0.102,0.414,0.15H6v20.956h41V27.461c0.709,0,3.872,0,3.871,0h1.983v-0.003H53v20.74
			h41V27.243H76.49z M25.474,20.736c-1.498-0.932-2.613-2.342-3.177-4.036c-0.773-2.319-0.4-4.832,1.074-6.879
			c1.229-1.708,3.179-2.827,5.27-3.06c1.252-0.14,2.468,0.017,3.612,0.461l10.153,13.523L25.474,20.736z M74.526,20.736
			l-16.932,0.01L67.748,7.222c1.144-0.443,2.359-0.6,3.612-0.461c2.091,0.233,4.041,1.352,5.27,3.06
			c1.473,2.046,1.847,4.56,1.074,6.879C77.14,18.394,76.024,19.804,74.526,20.736z M12.5,52.855H47V100H12.5V52.855z M53,52.855
			h34.5V100H53V52.855z"/>
	</g>
</g>
</svg>
