<?xml version="1.0" encoding="utf-8"?>
<!-- Generator: Adobe Illustrator 19.1.0, SVG Export Plug-In . SVG Version: 6.00 Build 0)  -->
<svg version="1.1" xmlns="http://www.w3.org/2000/svg" xmlns:xlink="http://www.w3.org/1999/xlink" x="0px" y="0px"
	 viewBox="0 0 100 100" enable-background="new 0 0 100 100" xml:space="preserve">
<g id="gear">
</g>
<g id="info">
</g>
<g id="fan">
</g>
<g id="mail-close1">
</g>
<g id="mail-close2">
</g>
<g id="mail-open">
</g>
<g id="campaign">
</g>
<g id="page">
</g>
<g id="preview">
	<path fill-rule="evenodd" clip-rule="evenodd" d="M87.5,56.374V18.75V0H0v18.75v50h26.182C25.41,70.747,25,72.842,25,75
		c0,13.812,16.812,25,37.5,25S100,88.812,100,75C100,67.597,95.167,60.951,87.5,56.374z M6.25,62.5V18.75h75v34.606
		C75.731,51.225,69.329,50,62.5,50c-13.864,0-25.978,5.028-32.468,12.5H6.25z M62.5,93.75c-16.939,0-31.25-8.586-31.25-18.75
		c0-10.164,14.311-18.75,31.25-18.75S93.75,64.836,93.75,75C93.75,85.164,79.439,93.75,62.5,93.75z M62.5,57.687
		c-8.5,0-15.313,7.75-15.313,17.313c0,9.562,6.813,17.312,15.313,17.312c8.5,0,15.313-7.75,15.313-17.312
		C77.813,65.437,71,57.687,62.5,57.687z M58.75,75C56.688,75,55,73.125,55,70.812c0-2.25,1.688-4.125,3.75-4.125
		c2.062,0,3.75,1.875,3.75,4.125C62.5,73.125,60.812,75,58.75,75z"/>
</g>
<g id="conversion">
</g>
<g id="home">
</g>
<g id="instantwin">
</g>
<g id="button">
</g>
<g id="image">
</g>
<g id="text">
</g>
<g id="enquete">
</g>
<g id="write">
</g>
<g id="design">
</g>
<g id="branch-parallel">
</g>
<g id="branch-serial">
</g>
<g id="fangate">
</g>
<g id="youtube">
</g>
<g id="coupon">
</g>
<g id="radio">
</g>
<g id="logout">
</g>
<g id="check1">
</g>
<g id="check2">
</g>
<g id="download">
</g>
<g id="plus">
</g>
<g id="attract">
</g>
<g id="communication">
</g>
<g id="share">
</g>
<g id="arrow-right">
</g>
<g id="arrow-left-single">
</g>
<g id="arrow-bottom">
</g>
<g id="arrow-top">
</g>
<g id="follow-twitter">
</g>
<g id="arrow-follow">
</g>
<g id="caution">
</g>
<g id="minus">
</g>
<g id="delete">
</g>
<g id="edit">
</g>
<g id="fixed">
</g>
<g id="arrow-right-double">
</g>
<g id="arrow-left-double">
</g>
<g id="sort">
</g>
<g id="newwindow">
</g>
<g id="resize">
</g>
<g id="follow-facebook">
</g>
<g id="mail-option">
</g>
<g id="clock">
</g>
<g id="redirect">
</g>
<g id="open">
</g>
<g id="key">
</g>
<g id="archive-in">
</g>
<g id="archive-out">
</g>
<g id="attention_1_">
</g>
</svg>
