<?xml version="1.0" encoding="utf-8"?>
<!-- Generator: Adobe Illustrator 19.1.0, SVG Export Plug-In . SVG Version: 6.00 Build 0)  -->
<svg version="1.1" xmlns="http://www.w3.org/2000/svg" xmlns:xlink="http://www.w3.org/1999/xlink" x="0px" y="0px"
	 viewBox="0 0 100 100" enable-background="new 0 0 100 100" xml:space="preserve">
<g id="gear">
</g>
<g id="info">
</g>
<g id="fan">
</g>
<g id="mail-close1">
</g>
<g id="mail-close2">
</g>
<g id="mail-open">
</g>
<g id="campaign">
</g>
<g id="page">
</g>
<g id="preview">
</g>
<g id="conversion">
</g>
<g id="home">
</g>
<g id="instantwin">
</g>
<g id="button">
</g>
<g id="image">
</g>
<g id="text">
</g>
<g id="enquete">
</g>
<g id="write">
</g>
<g id="design">
</g>
<g id="branch-parallel">
</g>
<g id="branch-serial">
</g>
<g id="fangate">
</g>
<g id="youtube">
</g>
<g id="coupon">
</g>
<g id="radio">
</g>
<g id="logout">
</g>
<g id="check1">
</g>
<g id="check2">
</g>
<g id="download">
</g>
<g id="plus">
</g>
<g id="add">
</g>
<g id="attract">
</g>
<g id="communication">
</g>
<g id="share">
</g>
<g id="arrow-right">
</g>
<g id="arrow-left-single">
</g>
<g id="arrow-bottom">
</g>
<g id="arrow-top">
</g>
<g id="follow-twitter">
</g>
<g id="hashtag">
</g>
<g id="dashboard">
</g>
<g id="favo">
</g>
<g id="retweet">
</g>
<g id="reply">
</g>
<g id="arrow-follow">
</g>
<g id="caution">
</g>
<g id="minus">
</g>
<g id="delete">
</g>
<g id="edit">
</g>
<g id="fixed">
</g>
<g id="arrow-right-double">
</g>
<g id="arrow-left-double">
</g>
<g id="sort">
</g>
<g id="newwindow">
</g>
<g id="resize">
</g>
<g id="follow-facebook">
</g>
<g id="mail-option">
</g>
<g id="clock">
</g>
<g id="redirect">
</g>
<g id="deadline">
</g>
<g id="gift">
</g>
<g id="open">
</g>
<g id="key">
</g>
<g id="archive-in">
</g>
<g id="archive-out">
</g>
<g id="attention_1_">
</g>
<g id="menu">
</g>
<g id="copy">
</g>
<g id="images">
</g>
<g id="レイヤー_70">
</g>
<g id="tweet">
</g>
<g id="follow-youtube">
</g>
<g id="re-enquete">
	<g>
		<g>
			<path fill-rule="evenodd" clip-rule="evenodd" d="M81.826,51.137H50.001v4.546h31.825V51.137z M81.826,60.229H50.001v4.546
				h31.825V60.229z M81.826,78.415h-8.148l1.556-0.909l-1.364-1.364l-1.424,2.273H50.001v4.546h31.825V78.415z M99.148,52.91
				c-1.182-1.137-3.091-1.137-4.274,0l-1.228,1.182l4.274,4.183l1.227-1.182C100.284,55.956,100.284,54.046,99.148,52.91z
				 M93.192,42.044c0-1.256-1.017-2.273-2.273-2.273h-50.01c-0.396,0-0.763,0.11-1.088,0.288l-0.049-0.288
				c0,0,2.364-1.909,3.137-7.911c1.455,0.455,3.046-2.319,3.137-3.774c0.045-1.409-0.227-5.319-2.046-4.91
				c0.364-2.955,0.636-5.592,0.5-7.001c-0.455-5.092-5.274-10.502-12.684-10.502c-7.411,0-12.23,5.41-12.684,10.502
				c-0.136,1.409,0.136,4.046,0.5,7.001c-1.819-0.409-2.091,3.501-2.046,4.91c0.091,1.455,1.682,4.228,3.137,3.774
				c0.773,6.001,3.137,7.911,3.137,7.911l-0.045,6.365c0,0-1.546,0.955-7.865,3.728c-6.365,2.773-12.775,4.683-14.685,7.82
				c-1.728,2.773-1.182,16.185-1.182,16.185h38.553v18.186c0,1.256,1.017,2.273,2.273,2.273h50.01c1.256,0,2.273-1.017,2.273-2.273
				V62.962l3.773-3.688l-3.773-3.694V42.044z M88.645,58.982l-9.957,9.794l0.557,0.546H50.001v4.546h25.31l-1.032,1.682l1.682,1.637
				l5.585-3.319h0.279v-0.166l0.409-0.243l-0.409-0.405v-1.208l1.137,1.112l5.683-5.554v22.375H43.182V44.317h45.464V58.982z"/>
		</g>
	</g>
</g>
<g id="title">
</g>
<g id="photo">
</g>
</svg>
