<?xml version="1.0" encoding="utf-8"?>
<!-- Generator: Adobe Illustrator 19.1.0, SVG Export Plug-In . SVG Version: 6.00 Build 0)  -->
<svg version="1.1" xmlns="http://www.w3.org/2000/svg" xmlns:xlink="http://www.w3.org/1999/xlink" x="0px" y="0px"
	 viewBox="0 0 100 100" enable-background="new 0 0 100 100" xml:space="preserve">
<g id="gear">
</g>
<g id="info">
</g>
<g id="fan">
</g>
<g id="mail-close1">
</g>
<g id="mail-close2">
</g>
<g id="mail-open">
</g>
<g id="campaign">
</g>
<g id="page">
</g>
<g id="preview">
</g>
<g id="conversion">
</g>
<g id="home">
</g>
<g id="instantwin">
</g>
<g id="button">
</g>
<g id="image">
</g>
<g id="text">
</g>
<g id="enquete">
</g>
<g id="write">
</g>
<g id="design">
</g>
<g id="branch-parallel">
</g>
<g id="branch-serial">
</g>
<g id="fangate">
</g>
<g id="youtube">
</g>
<g id="coupon">
</g>
<g id="radio">
</g>
<g id="logout">
</g>
<g id="check1">
</g>
<g id="check2">
</g>
<g id="download">
</g>
<g id="plus">
</g>
<g id="add">
</g>
<g id="attract">
</g>
<g id="communication">
</g>
<g id="share">
</g>
<g id="arrow-right">
</g>
<g id="arrow-left-single">
</g>
<g id="arrow-bottom">
</g>
<g id="arrow-top">
</g>
<g id="follow-twitter">
</g>
<g id="hashtag">
</g>
<g id="dashboard">
</g>
<g id="favo">
</g>
<g id="retweet">
</g>
<g id="reply">
</g>
<g id="arrow-follow">
</g>
<g id="caution">
</g>
<g id="minus">
</g>
<g id="delete">
</g>
<g id="edit">
</g>
<g id="fixed">
</g>
<g id="arrow-right-double">
</g>
<g id="arrow-left-double">
</g>
<g id="sort">
</g>
<g id="newwindow">
</g>
<g id="resize">
</g>
<g id="follow-facebook">
</g>
<g id="mail-option">
</g>
<g id="clock">
</g>
<g id="redirect">
</g>
<g id="deadline">
</g>
<g id="gift">
</g>
<g id="open">
</g>
<g id="key">
</g>
<g id="archive-in">
</g>
<g id="archive-out">
</g>
<g id="attention_1_">
</g>
<g id="menu">
</g>
<g id="copy">
</g>
<g id="images">
</g>
<g id="レイヤー_70">
	<path d="M95.098,66.5v12.344h3.677c1.213,0,1.592,1.251,0.834,2.123l-6.33,6.178c-0.606,0.644-1.706,0.644-2.274,0l-6.33-6.178
		c-0.758-0.872,0.606-2.123,1.819-2.123h3.752v-7.998H77.928c-0.19,0-0.379-0.114-0.493-0.265l-3.184-3.525
		c-0.341-0.417-0.038-1.023,0.531-1.023H94.6C94.6,66.033,95.098,65.98,95.098,66.5z M62.35,75.622h3.677V88
		c0,0.325,0.299,0.434,0.573,0.434h19.743c0.569,0,0.872-0.606,0.531-1.023l-3.184-3.525c-0.114-0.152-0.303-0.265-0.493-0.265
		H70.878v-7.998h3.752c1.213,0,2.577-1.251,1.819-2.123l-6.33-7.77c-0.569-0.682-1.668-0.682-2.274,0l-6.33,7.77
		C60.758,74.372,61.137,75.622,62.35,75.622z M68.225,18.086c-2.502,1.099-5.231,1.819-8.035,2.16
		c2.881-1.706,5.117-4.435,6.14-7.656c-2.691,1.592-5.685,2.729-8.869,3.373c-2.577-2.729-6.216-4.397-10.234-4.397
		c-7.732,0-13.986,6.216-13.986,13.872c0,1.099,0.114,2.16,0.341,3.146c-11.598-0.569-21.908-6.102-28.844-14.479
		c-1.175,2.047-1.895,4.435-1.895,6.974c0,4.814,2.502,9.059,6.254,11.56c-2.312-0.076-4.473-0.72-6.368-1.744v0.152
		c0,6.747,4.852,12.356,11.257,13.607c-1.175,0.341-2.426,0.493-3.714,0.493c-0.872,0-1.781-0.076-2.615-0.227
		c1.781,5.496,6.936,9.514,13.077,9.627c-4.814,3.714-10.84,5.913-17.397,5.913c-1.137,0-2.236-0.038-3.335-0.19
		c6.216,3.942,13.569,6.254,21.453,6.254c25.736,0,39.836-21.15,39.836-39.495l-0.038-1.781
		C63.98,23.278,66.33,20.853,68.225,18.086z"/>
</g>
<g id="tweet">
</g>
<g id="follow-youtube">
</g>
<g id="re-enquete">
</g>
<g id="title">
</g>
<g id="photo">
</g>
</svg>
