<?xml version="1.0" encoding="utf-8"?>
<!-- Generator: Adobe Illustrator 18.1.1, SVG Export Plug-In . SVG Version: 6.00 Build 0)  -->
<svg version="1.1" xmlns="http://www.w3.org/2000/svg" xmlns:xlink="http://www.w3.org/1999/xlink" x="0px" y="0px"
	 viewBox="0 0 100 100" enable-background="new 0 0 100 100" xml:space="preserve">
<g id="link">
</g>
<g id="RSS">
	<path d="M90,0H10C4.477,0,0,4.477,0,10v80c0,5.523,4.477,10,10,10h80c5.523,0,10-4.477,10-10V10C100,4.477,95.523,0,90,0z
		 M24.527,84.992c-5.299,0-9.606-4.277-9.606-9.566c0-5.269,4.307-9.59,9.606-9.59c5.315,0,9.618,4.321,9.618,9.59
		C34.145,80.715,29.842,84.992,24.527,84.992z M48.664,85.078c0-9.041-3.507-17.539-9.881-23.909
		c-6.376-6.384-14.844-9.896-23.852-9.896V37.438c26.257,0,47.626,21.364,47.626,47.64H48.664z M73.209,85.078
		c0-32.155-26.147-58.322-58.259-58.322V12.922c39.765,0,72.128,32.381,72.128,72.156H73.209z"/>
</g>
</svg>
