<?xml version="1.0" encoding="utf-8"?>
<!-- Generator: Adobe Illustrator 18.1.1, SVG Export Plug-In . SVG Version: 6.00 Build 0)  -->
<svg version="1.1" id="レイヤー_1" xmlns="http://www.w3.org/2000/svg" xmlns:xlink="http://www.w3.org/1999/xlink" x="0px"
	 y="0px" viewBox="0 0 100 100" enable-background="new 0 0 100 100" xml:space="preserve">
<g>
	<path fill="#231815" d="M95.054,60.282l-8.65,0.027c-1.709,0.006-3.484,1.202-4.129,2.783c-0.014,0.033-1.367,3.345-2.818,5.646
		c-3.047,4.834-7.291,8.875-12.273,11.689c-5.221,2.949-11.136,4.506-17.105,4.506c-6.791,0-13.393-1.951-19.093-5.642
		c-0.883-0.571-1.493-1.022-1.726-1.199l11.809-6.678c1.385-0.777,1.462-1.86,1.431-2.29s-0.264-1.489-1.75-2.059L9.725,58.763
		C9.339,58.615,8.94,58.54,8.541,58.54c-1.502,0-2.743,1.066-3.019,2.594L0.36,89.882c-0.201,1.116,0.143,1.813,0.467,2.202
		c0.692,0.828,1.91,0.983,3.084,0.32l10.572-5.971c0.381-0.214,1.168-0.117,1.486,0.192c0.03,0.029,0.755,0.731,1.924,1.711
		C26.877,95.857,38.296,100,50.045,100c8.557,0,17.041-2.238,24.535-6.47c8.968-5.063,16.052-12.637,20.485-21.905
		c1.453-3.039,2.77-7.354,2.826-7.539c0.287-0.952,0.139-1.918-0.406-2.651C96.94,60.702,96.06,60.282,95.054,60.282z"/>
	<path fill="#231815" d="M99.171,7.918c-0.692-0.83-1.91-0.985-3.083-0.322l-10.584,5.979c-0.382,0.215-1.161,0.117-1.482-0.194
		c-0.039-0.039-0.986-0.955-2.286-2.024C72.816,4.032,61.53,0,49.957,0c-8.558,0-17.043,2.237-24.538,6.47
		C16.66,11.417,9.68,18.781,5.236,27.763c-1.522,3.068-2.916,7.477-2.975,7.661c-0.302,0.953-0.164,1.923,0.375,2.66
		c0.54,0.737,1.422,1.16,2.432,1.16l8.685-0.028c1.703-0.006,3.484-1.195,4.143-2.767c0.012-0.029,1.218-2.905,2.539-5.021
		c3.056-4.905,7.338-9.005,12.384-11.856c5.213-2.943,11.118-4.499,17.077-4.499c6.905,0,13.601,2.014,19.367,5.825
		c0.775,0.51,1.257,0.868,1.456,1.02L58.93,28.53c-1.386,0.777-1.462,1.861-1.43,2.291c0.032,0.429,0.266,1.489,1.749,2.055
		l31.034,8.367c0.384,0.146,0.78,0.22,1.176,0.22c1.503,0,2.746-1.066,3.022-2.593L99.64,10.12
		C99.841,9.004,99.496,8.306,99.171,7.918z"/>
</g>
</svg>
