<?xml version="1.0" encoding="utf-8"?>
<!-- Generator: Adobe Illustrator 19.1.0, SVG Export Plug-In . SVG Version: 6.00 Build 0)  -->
<svg version="1.1" xmlns="http://www.w3.org/2000/svg" xmlns:xlink="http://www.w3.org/1999/xlink" x="0px" y="0px"
	 viewBox="0 0 100 100" enable-background="new 0 0 100 100" xml:space="preserve">
<g id="gear">
</g>
<g id="info">
</g>
<g id="fan">
</g>
<g id="mail-close1">
</g>
<g id="mail-close2">
</g>
<g id="mail-open">
</g>
<g id="campaign">
</g>
<g id="page">
</g>
<g id="preview">
</g>
<g id="conversion">
</g>
<g id="home">
</g>
<g id="instantwin">
</g>
<g id="button">
</g>
<g id="image">
</g>
<g id="text">
</g>
<g id="enquete">
</g>
<g id="write">
</g>
<g id="design">
</g>
<g id="branch-parallel">
</g>
<g id="branch-serial">
</g>
<g id="fangate">
</g>
<g id="youtube">
</g>
<g id="coupon">
</g>
<g id="radio">
</g>
<g id="logout">
</g>
<g id="check1">
</g>
<g id="check2">
</g>
<g id="download">
</g>
<g id="plus">
</g>
<g id="attract">
</g>
<g id="communication">
</g>
<g id="share">
	<path fill-rule="evenodd" clip-rule="evenodd" d="M65.957,15.783v-0.609L27.739,37.391c-2.696-2-6-3.174-9.609-3.174
		C9.304,34.217,2.174,41.261,2.174,50s7.13,15.783,15.957,15.783c3.565,0,6.826-1.13,9.522-3.13l38.304,21.565
		c0,8.696,7.13,15.783,15.913,15.783c8.826,0,15.957-7.087,15.957-15.783c0-8.739-7.13-15.783-15.957-15.783
		c-4.348,0-8.304,1.739-11.174,4.522L34,51.652c0.043-0.565,0.043-1.087,0.043-1.652c0-0.739-0.043-1.478-0.13-2.174l36.826-20.739
		C67.783,24.261,65.957,20.217,65.957,15.783z M65.957,15.783c0,4.435,1.826,8.478,4.783,11.304
		c2.913,2.783,6.826,4.478,11.13,4.478c8.826,0,15.957-7.043,15.957-15.783C97.826,7.087,90.696,0,81.87,0
		c-8.565,0-15.609,6.739-15.913,15.174V15.783z"/>
</g>
<g id="arrow-right">
</g>
<g id="arrow-left-single">
</g>
<g id="arrow-bottom">
</g>
<g id="arrow-top">
</g>
<g id="follow-twitter">
</g>
<g id="arrow-follow">
</g>
<g id="caution">
</g>
<g id="minus">
</g>
<g id="delete">
</g>
<g id="edit">
</g>
<g id="fixed">
</g>
<g id="arrow-right-double">
</g>
<g id="arrow-left-double">
</g>
<g id="sort">
</g>
<g id="newwindow">
</g>
<g id="resize">
</g>
<g id="follow-facebook">
</g>
<g id="mail-option">
</g>
<g id="clock">
</g>
<g id="redirect">
</g>
<g id="open">
</g>
<g id="key">
</g>
<g id="archive-in">
</g>
<g id="archive-out">
</g>
<g id="attention_1_">
</g>
</svg>
