<?xml version="1.0" encoding="utf-8"?>
<!-- Generator: Adobe Illustrator 19.1.0, SVG Export Plug-In . SVG Version: 6.00 Build 0)  -->
<svg version="1.1" xmlns="http://www.w3.org/2000/svg" xmlns:xlink="http://www.w3.org/1999/xlink" x="0px" y="0px"
	 viewBox="0 0 100 100" enable-background="new 0 0 100 100" xml:space="preserve">
<g id="gear">
</g>
<g id="info">
</g>
<g id="fan">
</g>
<g id="mail-close1">
</g>
<g id="mail-close2">
</g>
<g id="mail-open">
</g>
<g id="campaign">
</g>
<g id="page">
</g>
<g id="preview">
</g>
<g id="conversion">
</g>
<g id="home">
</g>
<g id="instantwin">
</g>
<g id="button">
</g>
<g id="image">
</g>
<g id="text">
</g>
<g id="enquete">
</g>
<g id="write">
</g>
<g id="design">
</g>
<g id="branch-parallel">
</g>
<g id="branch-serial">
</g>
<g id="favo">
</g>
<g id="youtube">
</g>
<g id="coupon">
</g>
<g id="radio">
</g>
<g id="logout">
</g>
<g id="check1">
</g>
<g id="check2">
</g>
<g id="download">
</g>
<g id="plus">
</g>
<g id="add">
</g>
<g id="attract">
</g>
<g id="communication">
</g>
<g id="share">
</g>
<g id="arrow-right">
</g>
<g id="arrow-left-single">
</g>
<g id="arrow-bottom">
</g>
<g id="arrow-top">
</g>
<g id="follow-twitter">
</g>
<g id="hashtag">
</g>
<g id="dashboard">
</g>
<g id="_x5F_staer">
</g>
<g id="retweet">
</g>
<g id="reply">
</g>
<g id="arrow-follow">
</g>
<g id="caution">
</g>
<g id="question">
</g>
<g id="minus">
</g>
<g id="delete">
</g>
<g id="edit">
</g>
<g id="fixed">
</g>
<g id="arrow-right-double">
</g>
<g id="arrow-left-double">
</g>
<g id="sort">
</g>
<g id="newwindow">
</g>
<g id="resize">
</g>
<g id="follow-facebook">
</g>
<g id="mail-option">
</g>
<g id="clock">
</g>
<g id="redirect">
</g>
<g id="deadline">
</g>
<g id="gift">
</g>
<g id="open">
</g>
<g id="key">
</g>
<g id="archive-in">
</g>
<g id="archive-out">
</g>
<g id="attention_1_">
</g>
<g id="menu">
</g>
<g id="copy">
</g>
<g id="code">
</g>
<g id="images">
</g>
<g id="retweet_1_">
</g>
<g id="tweet">
</g>
<g id="follow-youtube">
</g>
<g id="re-enquete">
</g>
<g id="title">
</g>
<g id="photo">
</g>
<g id="ranking">
</g>
<g id="login">
</g>
<g id="contact">
</g>
<g id="win">
</g>
<g id="shipping">
	<path fill="#040000" d="M27.039,77.809c0,4.07-3.119,7.371-6.966,7.371c-3.848,0-6.969-3.301-6.969-7.371
		c0-4.071,3.121-7.37,6.969-7.37C23.92,70.439,27.039,73.738,27.039,77.809 M84.704,77.809c0-4.071-3.118-7.37-6.969-7.37
		c-3.846,0-6.966,3.299-6.966,7.37c0,4.07,3.12,7.371,6.966,7.371C81.587,85.18,84.704,81.879,84.704,77.809 M100,59.1V19.906
		c0-1.451-1.112-2.625-2.481-2.625H41.897c-1.37,0-2.48,1.174-2.48,2.625V59.1c0,1.451,1.11,2.624,2.48,2.624h55.621
		C98.888,61.724,100,60.551,100,59.1 M97.931,64.813c1.142,0,2.069,0.98,2.069,2.189v2.961c0,1.21-0.926,2.189-2.069,2.189H85.338
		c-1.687-2.525-4.461-4.182-7.603-4.182c-3.137,0-5.912,1.657-7.599,4.182H27.673c-1.684-2.525-4.461-4.182-7.599-4.182
		s-5.915,1.657-7.603,4.182H2.07c-1.143,0-2.07-0.978-2.07-2.189V47.077c0-0.511,0.17-1.008,0.48-1.401l13.499-17.132
		c0.394-0.499,0.975-0.789,1.589-0.789h18.86c1.143,0,2.069,0.98,2.069,2.189v32.679c0,1.21,0.925,2.19,2.069,2.19H97.931
		L97.931,64.813z M28.888,48.817v-12.74c0-1.248-0.955-2.258-2.135-2.258H18.31c-0.642,0-1.25,0.308-1.657,0.835L8.036,45.879
		c-0.31,0.403-0.479,0.905-0.479,1.422v1.515c0,1.244,0.957,2.255,2.134,2.255h17.061C27.933,51.071,28.888,50.061,28.888,48.817
		L28.888,48.817z"/>
</g>
<g id="delete_1_">
</g>
</svg>
