<?xml version="1.0" encoding="utf-8"?>
<!-- Generator: Adobe Illustrator 18.1.1, SVG Export Plug-In . SVG Version: 6.00 Build 0)  -->
<svg version="1.1" id="レイヤー_1" xmlns="http://www.w3.org/2000/svg" xmlns:xlink="http://www.w3.org/1999/xlink" x="0px"
	 y="0px" viewBox="0 0 100 100" enable-background="new 0 0 100 100" xml:space="preserve">
<g>
	<path fill="#231815" d="M6.712,58.979c0-0.886,0-0.886,0-0.886c0.536-0.794,2.398-2.842,4.138-4.55l44.149-43.351
		c1.74-1.709,2.096-4.155,0.791-5.436s-3.796-0.932-5.536,0.777L6.105,48.88c-1.74,1.709-4.282,4.759-5.649,6.778
		c0,0-0.455,0.673-0.455,3.32c0,2.645,0.455,3.318,0.455,3.318c1.367,2.019,3.909,5.07,5.649,6.778l26.074,25.603
		c1.74,1.709,4.231,2.058,5.536,0.777c1.305-1.281,0.949-3.728-0.791-5.436L10.85,64.415c-1.74-1.709-3.602-3.757-4.138-4.553
		C6.712,59.862,6.712,59.862,6.712,58.979z"/>
	<path fill="#231815" d="M66.765,8.464c-2.428,0.232-5.837,1.82-7.577,3.529L15.039,55.343c-1.74,1.709-1.74,4.505,0,6.213
		l27.656,27.156c1.74,1.709,4.587,1.709,6.327,0l44.148-43.351c1.74-1.709,3.361-5.092,3.601-7.519l2.791-28.144
		c0.241-2.427-1.549-4.222-3.976-3.99L66.765,8.464z M87.119,28.998c-3.111,3.055-8.155,3.055-11.266,0s-3.111-8.008,0-11.063
		c3.111-3.055,8.155-3.055,11.266,0S90.23,25.943,87.119,28.998z"/>
</g>
</svg>
