<?xml version="1.0" encoding="utf-8"?>
<!-- Generator: Adobe Illustrator 19.1.0, SVG Export Plug-In . SVG Version: 6.00 Build 0)  -->
<svg version="1.1" xmlns="http://www.w3.org/2000/svg" xmlns:xlink="http://www.w3.org/1999/xlink" x="0px" y="0px"
	 viewBox="0 0 100 100" enable-background="new 0 0 100 100" xml:space="preserve">
<g id="gear">
</g>
<g id="info">
</g>
<g id="fan">
</g>
<g id="mail-close1">
</g>
<g id="mail-close2">
</g>
<g id="mail-open">
</g>
<g id="campaign">
</g>
<g id="page">
</g>
<g id="preview">
</g>
<g id="conversion">
</g>
<g id="home">
</g>
<g id="instantwin">
</g>
<g id="button">
</g>
<g id="image">
</g>
<g id="text">
</g>
<g id="enquete">
</g>
<g id="write">
</g>
<g id="design">
</g>
<g id="branch-parallel">
</g>
<g id="branch-serial">
</g>
<g id="fangate">
</g>
<g id="youtube">
</g>
<g id="coupon">
</g>
<g id="radio">
</g>
<g id="logout">
</g>
<g id="check1">
</g>
<g id="check2">
</g>
<g id="download">
</g>
<g id="plus">
</g>
<g id="add">
</g>
<g id="attract">
</g>
<g id="communication">
</g>
<g id="share">
</g>
<g id="arrow-right">
</g>
<g id="arrow-left-single">
</g>
<g id="arrow-bottom">
</g>
<g id="arrow-top">
</g>
<g id="follow-twitter">
</g>
<g id="hashtag">
</g>
<g id="dashboard">
</g>
<g id="favo">
</g>
<g id="retweet">
</g>
<g id="reply">
</g>
<g id="arrow-follow">
</g>
<g id="caution">
</g>
<g id="minus">
</g>
<g id="delete">
</g>
<g id="edit">
</g>
<g id="fixed">
</g>
<g id="arrow-right-double">
</g>
<g id="arrow-left-double">
</g>
<g id="sort">
</g>
<g id="newwindow">
</g>
<g id="resize">
</g>
<g id="follow-facebook">
</g>
<g id="mail-option">
</g>
<g id="clock">
</g>
<g id="redirect">
</g>
<g id="deadline">
</g>
<g id="gift">
</g>
<g id="open">
</g>
<g id="key">
</g>
<g id="archive-in">
</g>
<g id="archive-out">
</g>
<g id="attention_1_">
</g>
<g id="menu">
</g>
<g id="copy">
</g>
<g id="images">
</g>
<g id="レイヤー_70">
</g>
<g id="tweet">
</g>
<g id="follow-youtube">
</g>
<g id="re-enquete">
</g>
<g id="title">
	<path fill-rule="evenodd" clip-rule="evenodd" d="M42.726,33.885l6.535-22.247l6.446,22.247H42.726z M28.089,47.807h8.326
		l3.76-9.669h18.129l3.894,9.669h8.46L52.663,0h-6.401L28.089,47.807z M18.509,76.858h7.789c8.908,0,12.489,2.417,12.489,9.266
		c0,8.639-6.714,9.669-11.594,9.669h-8.684V76.858z M18.509,58.55h6.67c6.132,0,8.818,2.328,8.818,7.117
		c0,4.118-2.686,6.938-8.102,6.938h-7.386V58.55z M10.004,100h18.129c10.072,0,19.114-1.88,19.114-12.936
		c0-8.46-4.297-12.22-10.474-12.623v-0.045c2.328-0.895,5.685-4.118,5.685-10.385c0-7.789-7.386-9.714-14.324-9.714H10.004V100z
		 M88.966,57.968c-4.342-3.044-9.445-4.163-15.443-4.163c-13.608,0-23.321,6.714-23.321,23.321c0,16.159,9.714,22.874,23.321,22.874
		c6.491,0,12.489-1.388,16.473-5.103l-6.491-5.416c-2.954,4.387-6.356,6.312-9.937,6.312c-9.087,0-15.13-8.236-15.13-19.248
		c0-10.34,6.043-18.532,15.13-18.532c3.089,0,6.043,1.074,9.311,5.103L88.966,57.968z"/>
</g>
<g id="photo">
</g>
</svg>
