<?xml version="1.0" encoding="utf-8"?>
<!-- Generator: Adobe Illustrator 19.1.0, SVG Export Plug-In . SVG Version: 6.00 Build 0)  -->
<svg version="1.1" xmlns="http://www.w3.org/2000/svg" xmlns:xlink="http://www.w3.org/1999/xlink" x="0px" y="0px"
	 viewBox="0 0 100 100" enable-background="new 0 0 100 100" xml:space="preserve">
<g id="ln1">
</g>
<g id="gp1">
</g>
<g id="gp2">
</g>
<g id="yh1">
</g>
<g id="fb1">
</g>
<g id="ig1">
</g>
<g id="tw1">
	<path fill="#05ABED" d="M0,0v100h100V0H0z M65.303,41.247c0.016,0.361,0.024,0.724,0.024,1.088
		c0,11.116-8.461,23.933-23.933,23.933c-4.75,0-9.172-1.392-12.894-3.779c0.658,0.078,1.328,0.117,2.007,0.117
		c3.941,0,7.568-1.345,10.447-3.601c-3.681-0.068-6.787-2.5-7.858-5.842c0.514,0.098,1.041,0.151,1.583,0.151
		c0.767,0,1.437-0.103,2.143-0.295C32.973,52.247,30,48.847,30,44.771c0-0.035,0-0.071,0-0.106c1,0.63,2.505,1.008,3.884,1.052
		c-2.257-1.508-3.705-4.083-3.705-7.001c0-1.542,0.433-2.987,1.157-4.229c4.149,5.089,10.356,8.438,17.347,8.789
		c-0.143-0.616-0.213-1.258-0.213-1.917c0-4.645,3.769-8.411,8.414-8.411c2.419,0,4.607,1.021,6.141,2.656
		c1.916-0.377,3.717-1.077,5.342-2.041c-0.628,1.964-1.962,3.613-3.698,4.654c1.702-0.203,3.323-0.656,4.831-1.325
		C68.372,38.579,66.946,40.061,65.303,41.247z"/>
</g>
<g id="tw2">
</g>
<g id="mx1">
</g>
</svg>
