<?xml version="1.0" encoding="utf-8"?>
<!-- Generator: Adobe Illustrator 19.1.0, SVG Export Plug-In . SVG Version: 6.00 Build 0)  -->
<svg version="1.1" xmlns="http://www.w3.org/2000/svg" xmlns:xlink="http://www.w3.org/1999/xlink" x="0px" y="0px"
	 viewBox="0 0 100 100" enable-background="new 0 0 100 100" xml:space="preserve">
<g id="ln1">
</g>
<g id="gp1">
</g>
<g id="gp2">
</g>
<g id="yh1">
</g>
<g id="fb1">
</g>
<g id="ig1">
</g>
<g id="tw1">
</g>
<g id="tw2">
	<path fill="#FFFFFF" d="M100,17.594c-3.679,1.632-7.633,2.735-11.783,3.231c4.236-2.539,7.489-6.56,9.021-11.351
		c-3.964,2.351-8.355,4.059-13.028,4.979c-3.742-3.987-9.074-6.479-14.975-6.479c-11.331,0-20.517,9.186-20.517,20.516
		c0,1.608,0.181,3.174,0.531,4.675C32.198,32.309,17.08,24.142,6.962,11.729c-1.766,3.03-2.778,6.554-2.778,10.314
		c0,7.118,3.622,13.397,9.127,17.077c-3.363-0.106-6.527-1.029-9.293-2.566c-0.001,0.086-0.002,0.171-0.002,0.258
		c0,9.94,7.072,18.233,16.458,20.117c-1.722,0.469-3.534,0.719-5.405,0.719c-1.322,0-2.607-0.129-3.86-0.368
		c2.611,8.151,10.188,14.082,19.165,14.248c-7.022,5.502-15.868,8.782-25.48,8.782c-1.656,0-3.289-0.097-4.894-0.286
		c9.079,5.821,19.863,9.217,31.449,9.217c37.737,0,58.373-31.262,58.373-58.373c0-0.889-0.02-1.774-0.059-2.654
		C93.771,25.322,97.25,21.708,100,17.594z"/>
</g>
<g id="mx1">
</g>
</svg>
