<?xml version="1.0" encoding="utf-8"?>
<!-- Generator: Adobe Illustrator 19.1.0, SVG Export Plug-In . SVG Version: 6.00 Build 0)  -->
<svg version="1.1" xmlns="http://www.w3.org/2000/svg" xmlns:xlink="http://www.w3.org/1999/xlink" x="0px" y="0px"
	 viewBox="0 0 100 100" enable-background="new 0 0 100 100" xml:space="preserve">
<g id="gear">
</g>
<g id="info">
</g>
<g id="fan">
</g>
<g id="mail-close1">
</g>
<g id="mail-close2">
</g>
<g id="mail-open">
</g>
<g id="campaign">
</g>
<g id="page">
</g>
<g id="preview">
</g>
<g id="conversion">
</g>
<g id="home">
</g>
<g id="instantwin">
</g>
<g id="button">
</g>
<g id="image">
</g>
<g id="text">
</g>
<g id="enquete">
</g>
<g id="write">
</g>
<g id="design">
</g>
<g id="branch-parallel">
</g>
<g id="branch-serial">
</g>
<g id="fangate">
</g>
<g id="youtube">
</g>
<g id="coupon">
</g>
<g id="radio">
</g>
<g id="logout">
</g>
<g id="check1">
</g>
<g id="check2">
</g>
<g id="download">
</g>
<g id="plus">
</g>
<g id="add">
</g>
<g id="attract">
</g>
<g id="communication">
</g>
<g id="share">
</g>
<g id="arrow-right">
</g>
<g id="arrow-left-single">
</g>
<g id="arrow-bottom">
</g>
<g id="arrow-top">
</g>
<g id="follow-twitter">
</g>
<g id="hashtag">
</g>
<g id="dashboard">
</g>
<g id="favo">
</g>
<g id="retweet">
</g>
<g id="reply">
</g>
<g id="arrow-follow">
</g>
<g id="caution">
</g>
<g id="minus">
</g>
<g id="delete">
</g>
<g id="edit">
</g>
<g id="fixed">
</g>
<g id="arrow-right-double">
</g>
<g id="arrow-left-double">
</g>
<g id="sort">
</g>
<g id="newwindow">
</g>
<g id="resize">
</g>
<g id="follow-facebook">
</g>
<g id="mail-option">
</g>
<g id="clock">
</g>
<g id="redirect">
</g>
<g id="deadline">
</g>
<g id="gift">
</g>
<g id="open">
</g>
<g id="key">
</g>
<g id="archive-in">
</g>
<g id="archive-out">
</g>
<g id="attention_1_">
</g>
<g id="menu">
</g>
<g id="copy">
</g>
<g id="images">
</g>
<g id="レイヤー_70">
</g>
<g id="tweet">
	<path d="M58.643,22.772l0.036,1.696c0,17.358-13.497,37.387-38.109,37.387c-7.578,0-14.616-2.165-20.57-5.918
		c1.047,0.144,2.129,0.18,3.212,0.18c6.279,0,12.053-2.093,16.637-5.594c-5.846-0.108-10.79-3.934-12.523-9.13
		c0.83,0.144,1.66,0.217,2.526,0.217c1.227,0,2.418-0.144,3.537-0.469C7.254,39.95,2.634,34.645,2.634,28.258v-0.144
		c1.804,0.974,3.861,1.552,6.063,1.624c-3.573-2.346-5.955-6.351-5.955-10.935c0-2.382,0.65-4.655,1.804-6.604
		c6.64,7.975,16.492,13.172,27.643,13.749c-0.253-0.974-0.361-1.985-0.361-2.995c0-7.254,5.991-13.136,13.389-13.136
		c3.861,0,7.362,1.588,9.78,4.15c3.067-0.613,5.918-1.696,8.517-3.212c-1.01,3.067-3.14,5.666-5.882,7.29
		c2.707-0.325,5.269-1.047,7.687-2.093C63.515,18.586,61.241,20.896,58.643,22.772z M98.195,52.292c0,0-23.638,10.213-27.752,37.459
		c0,0,0.361,0.866,0.794,0.144c2.021-3.32,7.867-13.389,9.635-14.724c2.671-1.985,12.847-4.367,12.306-7.615l-5.052,0.83
		c0,0,10.213-6.207,9.239-8.481l-5.882,1.696C91.483,61.603,100.83,55.252,98.195,52.292z M100,82.787V70.842h-3.609v10.141H81.308
		v3.609h16.888C99.193,84.592,100,83.785,100,82.787z M69.036,60.016H80.73v-3.609H67.232c-0.997,0-1.804,0.807-1.804,1.804v17.07
		h3.609V60.016z"/>
</g>
<g id="follow-youtube">
</g>
<g id="re-enquete">
</g>
<g id="title">
</g>
<g id="photo">
</g>
</svg>
