<?xml version="1.0" encoding="utf-8"?>
<!-- Generator: Adobe Illustrator 19.1.0, SVG Export Plug-In . SVG Version: 6.00 Build 0)  -->
<svg version="1.1" xmlns="http://www.w3.org/2000/svg" xmlns:xlink="http://www.w3.org/1999/xlink" x="0px" y="0px"
	 viewBox="0 0 100 100" enable-background="new 0 0 100 100" xml:space="preserve">
<g id="ln1">
</g>
<g id="gp1">
</g>
<g id="gp2">
</g>
<g id="yh1">
	<path fill="#E50012" d="M48.586,29.903l34.7,0.001l-1.167,1.16l-11.208,3.558L48.934,56.557l-0.082,13.025L60,69.584v5.482
		l-37.097,0.002l0.265-3.428L34,69.93V56.216L11.518,26.752L0.001,24.71L0,22h39.419l0.002,2.711l-11.657,1.683l16.797,21.594
		L59.13,33.423l-7.027-0.001L48.586,29.903z M87.474,27.417l0.293,30.666l5.162-0.002L100,29.185L87.474,27.417z M87,69.581
		l4.958,0.001l0.766-5.163L87,64.128V69.581z"/>
</g>
<g id="fb1">
</g>
<g id="ig1">
</g>
<g id="tw1">
</g>
<g id="tw2">
</g>
<g id="mx1">
</g>
</svg>
