<?xml version="1.0" encoding="UTF-8" standalone="no"?>
<svg width="25px" height="25px" viewBox="0 0 25 25" version="1.1" xmlns="http://www.w3.org/2000/svg" xmlns:xlink="http://www.w3.org/1999/xlink">
    <!-- Generator: Sketch 3.8.1 (29687) - http://www.bohemiancoding.com/sketch -->
    <title>Artboard</title>
    <desc>Created with Sketch.</desc>
    <defs></defs>
    <g id="Page-1" stroke="none" stroke-width="1" fill="none" fill-rule="evenodd">
        <g id="Artboard">
            <ellipse id="Oval" fill="#FFFFFF" cx="12.0880962" cy="12.6299764" rx="11.9213638" ry="11.9213638"></ellipse>
            <path d="M17.4652148,9.62879385 C17.4652148,9.92057548 17.2567994,10.1289909 16.9650177,10.1289909 L7.25285771,10.1289909 C6.96107607,10.1289909 6.75266062,9.92057548 6.75266062,9.62879385 L6.75266062,8.62839968 C6.75266062,8.33661805 6.96107607,8.1282026 7.25285771,8.1282026 L16.9650177,8.1282026 C17.2567994,8.1282026 17.4652148,8.33661805 17.4652148,8.62839968 L17.4652148,9.62879385 L17.4652148,9.62879385 Z M17.4652148,13.380272 C17.4652148,13.6720536 17.2567994,13.8804691 16.9650177,13.8804691 L7.25285771,13.8804691 C6.96107607,13.8804691 6.75266062,13.6720536 6.75266062,13.380272 L6.75266062,12.3798778 C6.75266062,12.0880962 6.96107607,11.8796807 7.25285771,11.8796807 L16.9650177,11.8796807 C17.2567994,11.8796807 17.4652148,12.0880962 17.4652148,12.3798778 L17.4652148,13.380272 L17.4652148,13.380272 Z M17.4652148,17.1317501 C17.4652148,17.4235317 17.2567994,17.6319472 16.9650177,17.6319472 L7.25285771,17.6319472 C6.96107607,17.6319472 6.75266062,17.4235317 6.75266062,17.1317501 L6.75266062,16.1313559 C6.75266062,15.8395743 6.96107607,15.6311588 7.25285771,15.6311588 L16.9650177,15.6311588 C17.2567994,15.6311588 17.4652148,15.8395743 17.4652148,16.1313559 L17.4652148,17.1317501 L17.4652148,17.1317501 Z" id="Shape" fill="#939493"></path>
            <polygon id="menu-notification" fill="#F72D4E" points="24.3846078 4.41840757 23.3008475 6.08573118 21.4251084 6.75266062 19.5076862 6.08573118 18.3405597 4.41840757 18.3405597 2.33425305 19.5493693 0.625246354 21.5084746 -6.66133815e-15 23.3425305 0.625246354 24.3846078 2.33425305"></polygon>
        </g>
    </g>
</svg>